<svg width="22" height="22" viewBox="0 0 22 22" fill="none" xmlns="http://www.w3.org/2000/svg">
    <path d="M16.28 8.27997C16.4124 8.13779 16.4846 7.94975 16.4811 7.75545C16.4777 7.56115 16.399 7.37576 16.2616 7.23835C16.1242 7.10093 15.9388 7.02222 15.7445 7.01879C15.5502 7.01537 15.3621 7.08749 15.22 7.21997L9.24997 13.19L6.77997 10.72C6.63779 10.5875 6.44975 10.5154 6.25545 10.5188C6.06114 10.5222 5.87576 10.6009 5.73835 10.7383C5.60093 10.8758 5.52222 11.0611 5.51879 11.2554C5.51537 11.4497 5.58749 11.6378 5.71997 11.78L8.71997 14.78C8.86059 14.9204 9.05122 14.9993 9.24997 14.9993C9.44872 14.9993 9.63934 14.9204 9.77997 14.78L16.28 8.27997Z" fill="#00D56E"/>
    <path fill-rule="evenodd" clip-rule="evenodd" d="M11 0C4.925 0 0 4.925 0 11C0 17.075 4.925 22 11 22C17.075 22 22 17.075 22 11C22 4.925 17.075 0 11 0ZM1.5 11C1.5 8.48044 2.50089 6.06408 4.28249 4.28249C6.06408 2.50089 8.48044 1.5 11 1.5C13.5196 1.5 15.9359 2.50089 17.7175 4.28249C19.4991 6.06408 20.5 8.48044 20.5 11C20.5 13.5196 19.4991 15.9359 17.7175 17.7175C15.9359 19.4991 13.5196 20.5 11 20.5C8.48044 20.5 6.06408 19.4991 4.28249 17.7175C2.50089 15.9359 1.5 13.5196 1.5 11Z" fill="#00D56E"/>
</svg>
