<svg width="24" height="24" viewBox="0 0 24 24" fill="none" xmlns="http://www.w3.org/2000/svg">
    <path d="M13 17.5C13 17.7652 12.8946 18.0196 12.7071 18.2071C12.5196 18.3946 12.2652 18.5 12 18.5C11.7348 18.5 11.4804 18.3946 11.2929 18.2071C11.1054 18.0196 11 17.7652 11 17.5C11 17.2348 11.1054 16.9804 11.2929 16.7929C11.4804 16.6054 11.7348 16.5 12 16.5C12.2652 16.5 12.5196 16.6054 12.7071 16.7929C12.8946 16.9804 13 17.2348 13 17.5ZM12.75 9.25C12.75 9.05109 12.671 8.86032 12.5303 8.71967C12.3897 8.57902 12.1989 8.5 12 8.5C11.8011 8.5 11.6103 8.57902 11.4697 8.71967C11.329 8.86032 11.25 9.05109 11.25 9.25V13.75C11.25 13.9489 11.329 14.1397 11.4697 14.2803C11.6103 14.421 11.8011 14.5 12 14.5C12.1989 14.5 12.3897 14.421 12.5303 14.2803C12.671 14.1397 12.75 13.9489 12.75 13.75V9.25Z" fill="#FFD336"/>
    <path fill-rule="evenodd" clip-rule="evenodd" d="M9.83597 3.24399C10.799 1.57899 13.201 1.57899 14.164 3.24399L23.131 18.748C24.094 20.415 22.891 22.5 20.966 22.5H3.03397C1.10797 22.5 -0.0940274 20.415 0.868973 18.748L9.83597 3.24399ZM12.866 3.99499C12.7782 3.84298 12.652 3.71676 12.5 3.629C12.3479 3.54123 12.1755 3.49503 12 3.49503C11.8244 3.49503 11.652 3.54123 11.5 3.629C11.348 3.71676 11.2217 3.84298 11.134 3.99499L2.16797 19.499C2.07996 19.651 2.03355 19.8236 2.03342 19.9993C2.03329 20.1749 2.07945 20.3476 2.16724 20.4997C2.25504 20.6519 2.38137 20.7783 2.53353 20.8661C2.68568 20.9539 2.85829 21.0001 3.03397 21H20.966C21.1415 21 21.3139 20.9538 21.466 20.866C21.618 20.7782 21.7442 20.652 21.832 20.5C21.9197 20.348 21.966 20.1755 21.9659 20C21.9659 19.8244 21.9197 19.652 21.832 19.5L12.866 3.99399V3.99499Z" fill="#FFD336"/>
</svg>