<svg width="480" height="500" viewBox="0 0 480 500" fill="none" xmlns="http://www.w3.org/2000/svg">
<path fill-rule="evenodd" clip-rule="evenodd" d="M244.335 0.00963189C274.546 -0.550706 299.222 23.4864 327.847 33.1368C357.585 43.1627 393.416 38.6232 417.702 58.4582C441.882 78.2062 449.141 111.792 459.956 141.033C470.172 168.655 481.681 196.959 479.795 226.34C477.954 255.025 454.132 277.919 449.351 306.264C443.942 338.327 464.009 373.612 450.001 402.971C436.481 431.309 404.184 446.199 375.962 460.082C348.669 473.509 318.01 476.031 288.282 482.527C257.9 489.165 228.039 503.704 197.278 499.124C166.422 494.53 137.849 477.674 114.809 456.699C92.6511 436.526 85.1945 405.418 67.6717 381.131C50.5125 357.348 23.4744 340.971 11.8869 314.048C0.0321143 286.503 -1.17397 255.501 0.728438 225.587C2.65209 195.339 8.61144 164.891 23.0681 138.229C37.4015 111.796 59.4954 90.2707 83.7628 72.4537C107.122 55.3032 135.59 48.1362 162.019 36.2125C189.576 23.7797 214.094 0.570535 244.335 0.00963189Z" fill="black"/>
</svg>