<?xml version="1.0" encoding="utf-8"?>
<svg width="925" height="913" viewBox="0 0 925 913" fill="none" xmlns="http://www.w3.org/2000/svg" class="blob1">
  <path fill-rule="evenodd" clip-rule="evenodd" d="M459.718 0.0256244C516.626 -0.776646 571.532 17.3822 624.855 37.2723C678.509 57.2857 732.872 78.8917 775.03 117.64C817.146 156.349 844.574 208.03 867.603 260.386C890.158 311.667 901.452 366.304 908.827 421.836C916.359 478.553 939.478 542.005 911.643 591.997C882.075 645.102 809.478 655.105 759.6 689.851C721.957 716.075 684.833 741.619 651.548 773.188C610.974 811.671 591.348 873.309 540.845 897.331C491.196 920.946 431.519 913.406 377.425 903.574C323.246 893.726 269.663 874.24 226.402 840.176C184.108 806.874 157.069 758.418 132.351 710.603C109.462 666.323 107.209 614.954 86.5323 569.599C62.555 517.006 3.93104 478.56 0.265746 420.878C-3.29123 364.9 29.3738 309.387 67.3757 268.123C104.589 227.716 172.554 229.974 211.634 191.368C252.73 150.771 250.632 77.1845 296.376 41.9031C341.263 7.28264 403.032 0.82477 459.718 0.0256244Z" fill="black"/>
</svg>