<svg width="925" height="913" viewBox="0 0 925 913" fill="none" xmlns="http://www.w3.org/2000/svg">
  <path fill-rule="evenodd" clip-rule="evenodd" d="M465.282 912.974C408.374 913.777 353.468 895.618 300.145 875.728C246.491 855.714 192.128 834.108 149.97 795.36C107.854 756.651 80.4256 704.97 57.3973 652.614C34.8424 601.333 23.5484 546.696 16.1733 491.164C8.64076 434.447 -14.4779 370.995 13.3567 321.003C42.9246 267.898 115.522 257.895 165.4 223.149C203.043 196.926 240.167 171.381 273.452 139.812C314.026 101.329 333.652 39.6907 384.155 15.669C433.804 -7.94616 493.481 -0.406318 547.575 9.42613C601.754 19.274 655.337 38.7597 698.598 72.8236C740.892 106.126 767.931 154.582 792.649 202.397C815.538 246.677 817.791 298.046 838.468 343.401C862.445 395.994 921.069 434.44 924.734 492.122C928.291 548.1 895.626 603.613 857.624 644.876C820.411 685.284 752.446 683.026 713.366 721.632C672.27 762.229 674.368 835.816 628.624 871.097C583.737 905.717 521.968 912.175 465.282 912.974Z" fill="#1E1E1E"/>
</svg>
