<?xml version="1.0" encoding="utf-8"?>
<svg width="1065" height="704" viewBox="0 0 1065 704" fill="none" xmlns="http://www.w3.org/2000/svg">
  <path fill-rule="evenodd" clip-rule="evenodd" d="M743.064 -93.5017C797.429 -43.4654 871.273 -3.92525 892.557 66.4596C913.834 136.824 881.771 211.016 855.49 278.287C831.967 338.496 782.682 381.549 748.205 435.947C711.928 493.186 702.777 572.05 645.991 608.843C589.213 645.631 512.672 622.36 445.213 632.263C369.9 643.319 297.74 690.12 223.209 670.908C148.027 651.529 81.3233 594.835 40.6171 527.971C1.0329 462.95 21.9385 380.494 1.92378 307.426C-17.647 235.979 -82.6347 174.92 -76.1089 101.84C-69.5904 28.8418 -13.3527 -28.6326 36.6041 -80.9455C83.036 -129.567 144.748 -156.844 203.036 -190.47C262.769 -224.93 316.235 -277.475 385.67 -282.319C455.382 -287.181 521.798 -250.2 584.492 -217.078C644.337 -185.461 693.097 -139.491 743.064 -93.5017Z" fill="#1A1A1A"/>
</svg>
