<?xml version="1.0" encoding="utf-8"?>
<svg width="933" height="704" viewBox="0 0 933 704" fill="none" xmlns="http://www.w3.org/2000/svg">
  <path fill-rule="evenodd" clip-rule="evenodd" d="M447.733 617.548C388.081 633.605 327.207 597.989 265.638 592.948C201.672 587.711 132.845 614.464 74.8298 587.015C17.0688 559.687 -13.9899 496.46 -49.9484 443.636C-83.9159 393.736 -120.786 343.119 -131.618 283.735C-142.194 225.758 -106.294 168.428 -110.869 109.672C-116.044 43.2105 -173.353 -17.0608 -160.129 -82.3982C-147.365 -145.461 -90.6826 -191.058 -41.584 -232.637C5.89772 -272.847 65.4653 -293.03 121.216 -320.655C178.192 -348.888 230.215 -392.581 293.509 -398.684C356.997 -404.805 422.038 -385.404 478.146 -355.071C532.108 -325.897 562.33 -267.698 609.138 -228.047C654.973 -189.22 716.733 -170.012 753.073 -122.18C790.253 -73.2443 808.023 -12.1652 819.087 48.2886C830.275 109.417 833.556 172.939 818.103 233.13C802.782 292.808 769.631 346.558 730.329 394.007C692.497 439.68 639.581 468.018 593.067 504.812C544.569 543.175 507.444 601.475 447.733 617.548Z" fill="black"/>
</svg>
