<svg width="480" height="500" viewBox="0 0 480 500" fill="none" xmlns="http://www.w3.org/2000/svg">
<path fill-rule="evenodd" clip-rule="evenodd" d="M239.145 10.2522C277.382 6.32621 318.244 -8.78548 353.006 7.15275C387.758 23.0862 405.613 61.0785 422.765 94.4415C438.116 124.302 437.901 158.278 447.212 190.399C457.01 224.198 484.584 254.888 479.344 289.627C474.105 324.362 438.652 346.119 419.256 375.758C397.602 408.847 390.961 453.008 357.783 475.381C324.315 497.948 279.23 504.382 239.145 497.208C200.164 490.231 175.242 453.734 139.872 436.38C105.287 419.41 59.0926 423.675 32.8672 395.995C6.67098 368.347 3.66318 326.706 0.501271 289.283C-2.43754 254.5 8.20783 221.119 15.1993 186.885C22.3639 151.803 20.321 112.935 42.37 84.2682C64.5071 55.4873 101.812 42.3838 136.33 29.4C169.279 17.0063 204 13.8607 239.145 10.2522Z" fill="#121212"/>
</svg>