<svg width="20" height="20" viewBox="0 0 20 20" fill="none" xmlns="http://www.w3.org/2000/svg">
<path fill-rule="evenodd" clip-rule="evenodd" d="M13.5164 1.64016C13.9266 1.23026 14.4827 1 15.0626 1C15.6425 1 16.1987 1.23026 16.6089 1.64016L17.9664 2.99766C18.3763 3.40785 18.6065 3.96401 18.6065 4.54391C18.6065 5.1238 18.3763 5.67997 17.9664 6.09016L7.20387 16.8527C6.94137 17.1152 6.61637 17.3077 6.25887 17.4089L2.19512 18.5714C2.03427 18.6174 1.86405 18.6195 1.70213 18.5775C1.5402 18.5355 1.39246 18.4509 1.27423 18.3326C1.156 18.2142 1.0716 18.0664 1.02977 17.9044C0.987949 17.7424 0.990226 17.5722 1.03637 17.4114L2.19762 13.3489C2.29941 12.9909 2.49086 12.6648 2.75387 12.4014L13.5164 1.63891V1.64016ZM15.2839 2.96516C15.2548 2.93606 15.2204 2.91297 15.1824 2.89721C15.1444 2.88146 15.1037 2.87335 15.0626 2.87335C15.0215 2.87335 14.9808 2.88146 14.9429 2.89721C14.9049 2.91297 14.8704 2.93606 14.8414 2.96516L13.2639 4.54391L15.0626 6.34391L16.6414 4.76516C16.6705 4.73613 16.6936 4.70164 16.7093 4.66368C16.7251 4.62571 16.7332 4.58501 16.7332 4.54391C16.7332 4.5028 16.7251 4.4621 16.7093 4.42414C16.6936 4.38617 16.6705 4.35169 16.6414 4.32266L15.2839 2.96516ZM13.7364 7.66891L11.9376 5.86891L4.08012 13.7277C4.0424 13.7651 4.01487 13.8116 4.00012 13.8627L3.30262 16.3039L5.74387 15.6064C5.79496 15.5917 5.84144 15.5642 5.87887 15.5264L13.7364 7.66891Z" fill="black" fill-opacity="0.5"/>
</svg>