<?xml version="1.0" encoding="utf-8"?>
<svg width="80" height="100" viewBox="0 0 80 100" fill="none" xmlns="http://www.w3.org/2000/svg">
  <path d="M60.8333 36.6667H19.1667C18.2467 36.6667 17.5 37.4117 17.5 38.3334C17.5 39.255 18.2467 40 19.1667 40H60.8333C61.7533 40 62.5 39.255 62.5 38.3334C62.5 37.4117 61.7533 36.6667 60.8333 36.6667Z" fill="white"/>
  <path d="M19.1667 26.6667H35.8333C36.7533 26.6667 37.5 25.9217 37.5 25C37.5 24.0783 36.7533 23.3333 35.8333 23.3333H19.1667C18.2467 23.3333 17.5 24.0783 17.5 25C17.5 25.9217 18.2467 26.6667 19.1667 26.6667Z" fill="white"/>
  <path d="M60.8333 50H19.1667C18.2467 50 17.5 50.745 17.5 51.6667C17.5 52.5883 18.2467 53.3333 19.1667 53.3333H60.8333C61.7533 53.3333 62.5 52.5883 62.5 51.6667C62.5 50.745 61.7533 50 60.8333 50Z" fill="white"/>
  <path d="M60.8333 63.3333H19.1667C18.2467 63.3333 17.5 64.0783 17.5 65C17.5 65.9217 18.2467 66.6667 19.1667 66.6667H60.8333C61.7533 66.6667 62.5 65.9217 62.5 65C62.5 64.0783 61.7533 63.3333 60.8333 63.3333Z" fill="white"/>
  <path d="M60.8333 76.6667H19.1667C18.2467 76.6667 17.5 77.4117 17.5 78.3333C17.5 79.255 18.2467 80 19.1667 80H60.8333C61.7533 80 62.5 79.255 62.5 78.3333C62.5 77.4117 61.7533 76.6667 60.8333 76.6667Z" fill="white"/>
  <path d="M54.8568 0H0.833496V100H79.1668V24.31L54.8568 0ZM55.8335 5.69L73.4768 23.3333H55.8335V5.69ZM4.16683 96.6667V3.33333H52.5002V26.6667H75.8335V96.6667H4.16683Z" fill="white"/>
</svg>
