<?xml version="1.0" encoding="UTF-8" standalone="no"?><!DOCTYPE svg PUBLIC "-//W3C//DTD SVG 1.1//EN" "http://www.w3.org/Graphics/SVG/1.1/DTD/svg11.dtd"><svg width="100%" height="100%" viewBox="0 0 1438 1445" version="1.1" xmlns="http://www.w3.org/2000/svg" xmlns:xlink="http://www.w3.org/1999/xlink" xml:space="preserve" xmlns:serif="http://www.serif.com/" style="fill-rule:evenodd;clip-rule:evenodd;stroke-linejoin:round;stroke-miterlimit:2;"><rect id="Export" x="0" y="0" width="1437.92" height="1445" style="fill:none;"/><clipPath id="_clip1"><rect x="0" y="0" width="1437.92" height="1445"/></clipPath><g clip-path="url(#_clip1)"><g><path d="M889.263,46.231c14.083,-28.323 42.988,-46.231 74.619,-46.231c116.681,0 390.626,0 390.626,0c28.848,-0 55.643,14.92 70.837,39.442c15.193,24.522 16.623,55.158 3.779,80.988c-138.996,279.541 -483.25,971.887 -635.628,1278.34c-14.082,28.322 -42.986,46.229 -74.616,46.229c-31.63,0 -60.533,-17.907 -74.615,-46.229c-152.378,-306.454 -496.632,-998.8 -635.628,-1278.34c-12.844,-25.83 -11.414,-56.466 3.779,-80.988c15.194,-24.522 41.989,-39.442 70.837,-39.442c-0,0 273.945,0 390.626,0c31.631,-0 60.535,17.908 74.618,46.231c34.526,69.436 95.768,192.602 95.768,192.602c14.082,28.322 42.985,46.23 74.615,46.23c31.63,-0 60.534,-17.908 74.616,-46.23c0,0 61.242,-123.166 95.767,-192.602Z"/><clipPath id="_clip2"><path d="M644.304,1398.78c14.083,28.322 42.986,46.229 74.617,46.229c31.63,0 60.534,-17.907 74.617,-46.229c152.383,-306.448 496.656,-998.791 635.663,-1278.34c12.844,-25.831 11.415,-56.469 -3.778,-80.992c-15.194,-24.524 -41.991,-39.445 -70.84,-39.445c-291.696,0 -979.628,0 -1271.33,0c-28.849,-0 -55.645,14.921 -70.839,39.445c-15.194,24.523 -16.623,55.161 -3.778,80.992c139.007,279.548 483.279,971.891 635.663,1278.34Z"/></clipPath><g clip-path="url(#_clip2)"><path d="M309.213,0l-360.46,0l717.351,1445l360.46,0l-717.351,-1445Z" style="fill:#c54dfd;"/></g></g></g></svg>