<?xml version="1.0" encoding="utf-8"?>
<svg width="404" height="354" viewBox="0 0 404 354" fill="none" xmlns="http://www.w3.org/2000/svg">
  <path fill-rule="evenodd" clip-rule="evenodd" d="M0 2C0 0.89543 0.89543 0 2 0H27C28.1046 0 29 0.89543 29 2C29 3.10457 28.1046 4 27 4H4V23.875C4 24.9796 3.10457 25.875 2 25.875C0.89543 25.875 0 24.9796 0 23.875V2ZM75 2C75 0.89543 75.8954 0 77 0H127C128.105 0 129 0.89543 129 2C129 3.10457 128.105 4 127 4H77C75.8954 4 75 3.10457 75 2ZM175 2C175 0.89543 175.895 0 177 0H227C228.105 0 229 0.89543 229 2C229 3.10457 228.105 4 227 4H177C175.895 4 175 3.10457 175 2ZM275 2C275 0.89543 275.895 0 277 0H327C328.105 0 329 0.89543 329 2C329 3.10457 328.105 4 327 4H277C275.895 4 275 3.10457 275 2ZM375 2C375 0.89543 375.895 0 377 0H402C403.105 0 404 0.89543 404 2V23.875C404 24.9796 403.105 25.875 402 25.875C400.895 25.875 400 24.9796 400 23.875V4H377C375.895 4 375 3.10457 375 2ZM2 65.625C3.10457 65.625 4 66.5204 4 67.625V111.375C4 112.48 3.10457 113.375 2 113.375C0.89543 113.375 0 112.48 0 111.375V67.625C0 66.5204 0.89543 65.625 2 65.625ZM402 65.625C403.105 65.625 404 66.5204 404 67.625V111.375C404 112.48 403.105 113.375 402 113.375C400.895 113.375 400 112.48 400 111.375V67.625C400 66.5204 400.895 65.625 402 65.625ZM2 153.125C3.10457 153.125 4 154.02 4 155.125V198.875C4 199.98 3.10457 200.875 2 200.875C0.89543 200.875 0 199.98 0 198.875V155.125C0 154.02 0.89543 153.125 2 153.125ZM402 153.125C403.105 153.125 404 154.02 404 155.125V198.875C404 199.98 403.105 200.875 402 200.875C400.895 200.875 400 199.98 400 198.875V155.125C400 154.02 400.895 153.125 402 153.125ZM2 240.625C3.10457 240.625 4 241.52 4 242.625V286.375C4 287.48 3.10457 288.375 2 288.375C0.89543 288.375 0 287.48 0 286.375V242.625C0 241.52 0.89543 240.625 2 240.625ZM402 240.625C403.105 240.625 404 241.52 404 242.625V286.375C404 287.48 403.105 288.375 402 288.375C400.895 288.375 400 287.48 400 286.375V242.625C400 241.52 400.895 240.625 402 240.625ZM2 328.125C3.10457 328.125 4 329.02 4 330.125V350H27C28.1046 350 29 350.895 29 352C29 353.105 28.1046 354 27 354H2C0.89543 354 0 353.105 0 352V330.125C0 329.02 0.89543 328.125 2 328.125ZM402 328.125C403.105 328.125 404 329.02 404 330.125V352C404 353.105 403.105 354 402 354H377C375.895 354 375 353.105 375 352C375 350.895 375.895 350 377 350H400V330.125C400 329.02 400.895 328.125 402 328.125ZM75 352C75 350.895 75.8954 350 77 350H127C128.105 350 129 350.895 129 352C129 353.105 128.105 354 127 354H77C75.8954 354 75 353.105 75 352ZM175 352C175 350.895 175.895 350 177 350H227C228.105 350 229 350.895 229 352C229 353.105 228.105 354 227 354H177C175.895 354 175 353.105 175 352ZM275 352C275 350.895 275.895 350 277 350H327C328.105 350 329 350.895 329 352C329 353.105 328.105 354 327 354H277C275.895 354 275 353.105 275 352Z" fill="white"/>
</svg>
