<svg width="16" height="16" viewBox="0 0 16 16" fill="none" xmlns="http://www.w3.org/2000/svg">
<path d="M14.7798 10.78C14.9123 10.6378 14.9845 10.4498 14.981 10.2555C14.9776 10.0612 14.8989 9.87579 14.7615 9.73838C14.6241 9.60097 14.4387 9.52225 14.2444 9.51883C14.0501 9.5154 13.862 9.58752 13.7198 9.72L11.9998 11.44V2.75C11.9998 2.55109 11.9208 2.36032 11.7802 2.21967C11.6395 2.07902 11.4488 2 11.2498 2C11.0509 2 10.8602 2.07902 10.7195 2.21967C10.5789 2.36032 10.4998 2.55109 10.4998 2.75V11.44L8.77985 9.72C8.63767 9.58752 8.44963 9.5154 8.25532 9.51883C8.06102 9.52225 7.87564 9.60097 7.73822 9.73838C7.60081 9.87579 7.5221 10.0612 7.51867 10.2555C7.51524 10.4498 7.58737 10.6378 7.71985 10.78L10.7198 13.78C10.8605 13.9205 11.0511 13.9993 11.2498 13.9993C11.4486 13.9993 11.6392 13.9205 11.7798 13.78L14.7798 10.78V10.78ZM8.27985 5.22C8.35353 5.28866 8.41264 5.37146 8.45363 5.46346C8.49462 5.55546 8.51666 5.65478 8.51844 5.75548C8.52022 5.85618 8.50169 5.95621 8.46397 6.0496C8.42625 6.14299 8.3701 6.22782 8.29888 6.29904C8.22767 6.37026 8.14283 6.4264 8.04944 6.46412C7.95606 6.50184 7.85603 6.52037 7.75532 6.51859C7.65462 6.51682 7.55531 6.49477 7.46331 6.45378C7.37131 6.41279 7.28851 6.35369 7.21985 6.28L5.49985 4.56L5.49985 13.25C5.49985 13.4489 5.42083 13.6397 5.28018 13.7803C5.13952 13.921 4.94876 14 4.74985 14C4.55093 14 4.36017 13.921 4.21952 13.7803C4.07886 13.6397 3.99985 13.4489 3.99985 13.25L3.99985 4.56L2.27985 6.28C2.13767 6.41248 1.94963 6.4846 1.75532 6.48118C1.56102 6.47775 1.37564 6.39903 1.23822 6.26162C1.10081 6.12421 1.0221 5.93882 1.01867 5.74452C1.01524 5.55022 1.08737 5.36218 1.21985 5.22L4.21985 2.22C4.36047 2.07955 4.5511 2.00066 4.74985 2.00066C4.9486 2.00066 5.13922 2.07955 5.27985 2.22L8.27985 5.22V5.22Z" fill="black"/>
</svg>
