<svg width="38" height="50" viewBox="0 0 38 50" fill="none" xmlns="http://www.w3.org/2000/svg">
<path d="M19.0001 35.9999C20.6569 35.9999 22 34.6568 22 33C22 31.3432 20.6569 30.0001 19.0001 30.0001C17.3434 30.0001 16.0003 31.3432 16.0003 33C16.0003 34.6568 17.3434 35.9999 19.0001 35.9999Z" fill="#431FD0"/>
<path d="M37 20H30V11C30 4.935 25.065 0 19 0C12.935 0 8 4.935 8 11C8 11.552 8.448 12 9 12C9.552 12 10 11.552 10 11C10 6.038 14.038 2 19 2C23.963 2 28 6.038 28 11V20H1C0.448 20 0 20.448 0 21V49C0 49.553 0.448 50 1 50H37C37.553 50 38 49.553 38 49V21C38 20.448 37.553 20 37 20ZM20 37.898V41C20 41.553 19.552 42 19 42C18.448 42 18 41.553 18 41V37.898C15.721 37.434 14 35.414 14 33C14 30.243 16.243 28 19 28C21.757 28 24 30.243 24 33C24 35.414 22.279 37.435 20 37.898Z" fill="#431FD0"/>
</svg>
