<svg xmlns="http://www.w3.org/2000/svg" width="70" height="70" viewBox="0 0 70 70" style="width: 100%; height: 100%;"><desc>Made with illustrio</desc>
  
<g class="base"><g fill="none" fill-rule="evenodd" stroke="none" class="main-fill">
    
    
  </g><g fill="none" transform="translate(22.91 19.09)" stroke="none" class="main-fill">
      <circle cx="12.091" cy="21" r="1.909" fill="none" stroke="none" class="main-fill"></circle>
      <path d="M23.5454545,12.7272727 L19.0909091,12.7272727 L19.0909091,7 C19.0909091,3.14045455 15.9504545,0 12.0909091,0 C8.23136364,0 5.09090909,3.14045455 5.09090909,7 C5.09090909,7.35127273 5.376,7.63636364 5.72727273,7.63636364 C6.07854545,7.63636364 6.36363636,7.35127273 6.36363636,7 C6.36363636,3.84236364 8.93327273,1.27272727 12.0909091,1.27272727 C15.2491818,1.27272727 17.8181818,3.84236364 17.8181818,7 L17.8181818,12.7272727 L0.636363636,12.7272727 C0.285090909,12.7272727 0,13.0123636 0,13.3636364 L0,31.1818182 C0,31.5337273 0.285090909,31.8181818 0.636363636,31.8181818 L23.5454545,31.8181818 C23.8973636,31.8181818 24.1818182,31.5337273 24.1818182,31.1818182 L24.1818182,13.3636364 C24.1818182,13.0123636 23.8973636,12.7272727 23.5454545,12.7272727 L23.5454545,12.7272727 Z M12.7272727,24.1169091 L12.7272727,26.0909091 C12.7272727,26.4428182 12.4421818,26.7272727 12.0909091,26.7272727 C11.7396364,26.7272727 11.4545455,26.4428182 11.4545455,26.0909091 L11.4545455,24.1169091 C10.0042727,23.8216364 8.90909091,22.5361818 8.90909091,21 C8.90909091,19.2455455 10.3364545,17.8181818 12.0909091,17.8181818 C13.8453636,17.8181818 15.2727273,19.2455455 15.2727273,21 C15.2727273,22.5361818 14.1775455,23.8222727 12.7272727,24.1169091 L12.7272727,24.1169091 Z" fill="none" stroke="none" class="main-fill"></path>
    </g></g><style>
          .main-fill {fill: #431fd0;}
          .main-stroke {stroke: #431fd0;}
          .secondary-fill {fill: #ffa8dc;}
          .secondary-stroke {stroke: #ffa8dc;}

          .main-fill--darken {fill: #2e158d;}
          .main-stroke--darken {stroke: #2e158d;}
          .secondary-fill--darken {fill: #ff5bbd;}
          .secondary-stroke--darken {stroke: #ff5bbd;}

          .main-fill--darkener {fill: #1f0e61;}
          .main-stroke--darkener {stroke: #1f0e61;}
          .secondary-fill--darkener {fill: #ff28a9;}
          .secondary-stroke--darkener {stroke: #ff28a9;}
        </style></svg>