<svg width="15" height="15" viewBox="0 0 15 15" fill="none" xmlns="http://www.w3.org/2000/svg">
    <path d="m3,13l0,0.5l1,0l-1,-0.5zm8,0l0,0.5l1,0l0,-0.5l-1,0zm-7,-0.5001l-1,0.5001l1,-0.5001zm7,0.5001l1,0l0,-0.5001l-1,0.5001zm-3.5,1c-3.58985,0 -6.5,-2.9101 -6.5,-6.5l-1,0c0,4.1421 3.35786,7.5 7.5,7.5l0,-1zm6.5,-6.5c0,3.5899 -2.9101,6.5 -6.5,6.5l0,1c4.1421,0 7.5,-3.3579 7.5,-7.5l-1,0zm-6.5,-6.5c3.5899,0 6.5,2.91015 6.5,6.5l1,0c0,-4.14214 -3.3579,-7.5 -7.5,-7.5l0,1zm0,-1c-4.14214,0 -7.5,3.35786 -7.5,7.5l1,0c0,-3.58985 2.91015,-6.5 6.5,-6.5l0,-1z" fill="black" id="svg_1"/>
    <path stroke="null" id="svg_2" fill="black" d="m9.30266,11.57983l0,0.39765l0.39765,0l0,-0.39765l-0.39765,0zm-5.83214,0l-0.39765,0l0,0.39765l0.39765,0l0,-0.39765zm4.0825,-2.91416l0,0.39765l0,0l0,-0.39765zm-2.33285,0l0,-0.39765l0,0l0,0.39765zm2.51843,-3.49701c0,0.7459 -0.60499,1.35086 -1.352,1.35086l0,0.79529c1.18575,0 2.14729,-0.96054 2.14729,-2.14615l-0.79529,0zm-1.352,1.35086c-0.74702,0 -1.352,-0.60495 -1.352,-1.35086l-0.79529,0c0,1.18561 0.96153,2.14615 2.14729,2.14615l0,-0.79529zm-1.352,-1.35086c0,-0.7459 0.60498,-1.35085 1.352,-1.35085l0,-0.79529c-1.18576,0 -2.14729,0.96053 -2.14729,2.14614l0.79529,0zm1.352,-1.35085c0.74701,0 1.352,0.60495 1.352,1.35085l0.79529,0c0,-1.18561 -0.96154,-2.14614 -2.14729,-2.14614l0,0.79529zm2.91607,7.36437l-5.83214,0l0,0.79529l5.83214,0l0,-0.79529zm-5.43449,0.39765c0,-0.0008 0,-0.00159 0,-0.00239c0,-0.0008 0,-0.00167 0,-0.00247c0,-0.0008 0,-0.00159 0,-0.00239c0,-0.0008 0,-0.00167 0,-0.00247c0,-0.0008 0,-0.00159 0,-0.00239c0,-0.0008 0,-0.00167 0,-0.00247c0,-0.0008 0,-0.00159 0,-0.00239c0,-0.0008 0,-0.00167 0,-0.00247c0,-0.0008 0,-0.00159 0,-0.00239c0,-0.0008 0,-0.00159 0,-0.00247c0,-0.0008 0,-0.00159 0,-0.00239c0,-0.0008 0,-0.00159 0,-0.00247c0,-0.0008 0,-0.00159 0,-0.00239c0,-0.0008 0,-0.00159 0,-0.00239c0,-0.00087 0,-0.00167 0,-0.00247c0,-0.0008 0,-0.00159 0,-0.00239c0,-0.0008 0,-0.00167 0,-0.00247c0,-0.0008 0,-0.00159 0,-0.00239c0,-0.0008 0,-0.00159 0,-0.00239c0,-0.00087 0,-0.00167 0,-0.00247c0,-0.0008 0,-0.00159 0,-0.00239c0,-0.0008 0,-0.00159 0,-0.00247c0,-0.0008 0,-0.00159 0,-0.00239c0,-0.0008 0,-0.00159 0,-0.00239c0,-0.0008 0,-0.00167 0,-0.00247c0,-0.0008 0,-0.00159 0,-0.00239c0,-0.0008 0,-0.00159 0,-0.00239c0,-0.00087 0,-0.00167 0,-0.00247c0,-0.0008 0,-0.00159 0,-0.00239c0,-0.0008 0,-0.00159 0,-0.00239c0,-0.00087 0,-0.00167 0,-0.00247c0,-0.0008 0,-0.00159 0,-0.00239c0,-0.0008 0,-0.00159 0,-0.00239c0,-0.00087 0,-0.00167 0,-0.00247c0,-0.0008 0,-0.00159 0,-0.00239c0,-0.0008 0,-0.00159 0,-0.00239c0,-0.0008 0,-0.00167 0,-0.00247c0,-0.0008 0,-0.00159 0,-0.00239c0,-0.0008 0,-0.00159 0,-0.00239c0,-0.0008 0,-0.00159 0,-0.00239c0,-0.00087 0,-0.00167 0,-0.00247c0,-0.0008 0,-0.00159 0,-0.00239c0,-0.0008 0,-0.00159 0,-0.00239c0,-0.0008 0,-0.00159 0,-0.00247c0,-0.0008 0,-0.00159 0,-0.00239c0,-0.0008 0,-0.00159 0,-0.00239c0,-0.0008 0,-0.00159 0,-0.00239c0,-0.0008 0,-0.00159 0,-0.00239c0,-0.00087 0,-0.00167 0,-0.00247c0,-0.0008 0,-0.00159 0,-0.00239c0,-0.0008 0,-0.00159 0,-0.00239c0,-0.0008 0,-0.00159 0,-0.00239c0,-0.0008 0,-0.00159 0,-0.00239c0,-0.00087 0,-0.00167 0,-0.00247c0,-0.0008 0,-0.00159 0,-0.00239c0,-0.0008 0,-0.00159 0,-0.00239c0,-0.0008 0,-0.00159 0,-0.00239c0,-0.0008 0,-0.00159 0,-0.00239c0,-0.0008 0,-0.00159 0,-0.00239c0,-0.00087 0,-0.00167 0,-0.00247c0,-0.0008 0,-0.00159 0,-0.00239c0,-0.0008 0,-0.00159 0,-0.00239c0,-0.0008 0,-0.00159 0,-0.00239c0,-0.0008 0,-0.00159 0,-0.00239c0,-0.0008 0,-0.00159 0,-0.00239c0,-0.0008 0,-0.00159 0,-0.00239c0,-0.0008 0,-0.00159 0,-0.00239c0,-0.00087 0,-0.00167 0,-0.00247c0,-0.0008 0,-0.00159 0,-0.00239c0,-0.0008 0,-0.00159 0,-0.00239c0,-0.0008 0,-0.00159 0,-0.00239c0,-0.0008 0,-0.00159 0,-0.00239c0,-0.0008 0,-0.00159 0,-0.00239c0,-0.0008 0,-0.00159 0,-0.00239c0,-0.0008 0,-0.00159 0,-0.00239c0,-0.0008 0,-0.00159 0,-0.00239c0,-0.0008 0,-0.00159 0,-0.00239c0,-0.0008 0,-0.00159 0,-0.00239c0,-0.0008 0,-0.00159 0,-0.00239c0,-0.0008 0,-0.00159 0,-0.00239c0,-0.0008 0,-0.00159 0,-0.00239c0,-0.0008 0,-0.00159 0,-0.00239c0,-0.0008 0,-0.00159 0,-0.00239c0,-0.0008 0,-0.00159 0,-0.00239c0,-0.0008 0,-0.00159 0,-0.00239c0,-0.0008 0,-0.00159 0,-0.00239c0,-0.0008 0,-0.00159 0,-0.00239c0,-0.0008 0,-0.00159 0,-0.00239c0,-0.0008 0,-0.00159 0,-0.00239c0,-0.0008 0,-0.00159 0,-0.00239c0,-0.0008 0,-0.00159 0,-0.00239c0,-0.0008 0,-0.00159 0,-0.00239c0,-0.0008 0,-0.00159 0,-0.00239c0,-0.0008 0,-0.00159 0,-0.00239c0,-0.0008 0,-0.00159 0,-0.00239c0,-0.0008 0,-0.00159 0,-0.00239c0,-0.0008 0,-0.00159 0,-0.00239c0,-0.00072 0,-0.00151 0,-0.00231c0,-0.0008 0,-0.00159 0,-0.00239c0,-0.0008 0,-0.00159 0,-0.00239c0,-0.0008 0,-0.00159 0,-0.00239c0,-0.0008 0,-0.00159 0,-0.00239c0,-0.0008 0,-0.00159 0,-0.00239c0,-0.0008 0,-0.00159 0,-0.00239c0,-0.0008 0,-0.00159 0,-0.00239c0,-0.00072 0,-0.00151 0,-0.00231c0,-0.0008 0,-0.00159 0,-0.00239c0,-0.0008 0,-0.00159 0,-0.00239c0,-0.0008 0,-0.00159 0,-0.00239c0,-0.0008 0,-0.00159 0,-0.00239c0,-0.0008 0,-0.00159 0,-0.00231c0,-0.0008 0,-0.00159 0,-0.00239c0,-0.0008 0,-0.00159 0,-0.00239c0,-0.0008 0,-0.00159 0,-0.00239c0,-0.0008 0,-0.00159 0,-0.00239c0,-0.0008 0,-0.00159 0,-0.00231c0,-0.0008 0,-0.00159 0,-0.00239c0,-0.0008 0,-0.00159 0,-0.00239c0,-0.0008 0,-0.00159 0,-0.00239c0,-0.0008 0,-0.00159 0,-0.00231c0,-0.0008 0,-0.00159 0,-0.00239c0,-0.0008 0,-0.00159 0,-0.00239c0,-0.0008 0,-0.00159 0,-0.00239c0,-0.0008 0,-0.00151 0,-0.00231c0,-0.0008 0,-0.00159 0,-0.00239c0,-0.0008 0,-0.00159 0,-0.00239c0,-0.0008 0,-0.00159 0,-0.00239c0,-0.00072 0,-0.00151 0,-0.00231c0,-0.0008 0,-0.00159 0,-0.00239c0,-0.0008 0,-0.00159 0,-0.00239c0,-0.00072 0,-0.00151 0,-0.00231c0,-0.0008 0,-0.00159 0,-0.00239c0,-0.0008 0,-0.00159 0,-0.00239c0,-0.00072 0,-0.00151 0,-0.00231c0,-0.0008 0,-0.00159 0,-0.00239c0,-0.0008 0,-0.00159 0,-0.00239c0,-0.00072 0,-0.00151 0,-0.00231c0,-0.0008 0,-0.00159 0,-0.00239c0,-0.0008 0,-0.00151 0,-0.00231c0,-0.0008 0,-0.00159 0,-0.00239c0,-0.0008 0,-0.00159 0,-0.00239c0,-0.00072 0,-0.00151 0,-0.00231c0,-0.0008 0,-0.00159 0,-0.00239c0,-0.0008 0,-0.00151 0,-0.00231c0,-0.0008 0,-0.00159 0,-0.00239c0,-0.0008 0,-0.00159 0,-0.00231c0,-0.0008 0,-0.00159 0,-0.00239c0,-0.0008 0,-0.00159 0,-0.00239c0,-0.00072 0,-0.00151 0,-0.00231c0,-0.0008 0,-0.00159 0,-0.00239c0,-0.00072 0,-0.00151 0,-0.00231c0,-0.0008 0,-0.00159 0,-0.00239c0,-0.0008 0,-0.00151 0,-0.00231c0,-0.0008 0,-0.00159 0,-0.00239c0,-0.0008 0,-0.00151 0,-0.00231c0,-0.0008 0,-0.00159 0,-0.00239c0,-0.0008 0,-0.00151 0,-0.00231c0,-0.0008 0,-0.00159 0,-0.00239c0,-0.0008 0,-0.00151 0,-0.00231c0,-0.0008 0,-0.00159 0,-0.00239c0,-0.00072 0,-0.00151 0,-0.00231c0,-0.0008 0,-0.00159 0,-0.00239c0,-0.00072 0,-0.00151 0,-0.00231c0,-0.0008 0,-0.00159 0,-0.00231c0,-0.0008 0,-0.00159 0,-0.00239c0,-0.0008 0,-0.00151 0,-0.00231c0,-0.0008 0,-0.00159 0,-0.00239c0,-0.00072 0,-0.00151 0,-0.00231c0,-0.0008 0,-0.00159 0,-0.00231c0,-0.0008 0,-0.00159 0,-0.00239c0,-0.0008 0,-0.00151 0,-0.00231c0,-0.0008 0,-0.00159 0,-0.00239c0,-0.00072 0,-0.00151 0,-0.00231c0,-0.0008 0,-0.00159 0,-0.00231c0,-0.0008 0,-0.00159 0,-0.00239c0,-0.00072 0,-0.00151 0,-0.00231c0,-0.0008 0,-0.00159 0,-0.00231c0,-0.0008 0,-0.00159 0,-0.00239c0,-0.00072 0,-0.00151 0,-0.00231c0,-0.0008 0,-0.00159 0,-0.00231c0,-0.0008 0,-0.00159 0,-0.00239c0,-0.00072 0,-0.00151 0,-0.00231c0,-0.0008 0,-0.00151 0,-0.00231c0,-0.0008 0,-0.00159 0,-0.00239c0,-0.00072 0,-0.00151 0,-0.00231c0,-0.0008 0,-0.00151 0,-0.00231c0,-0.0008 0,-0.00159 0,-0.00231c0,-0.0008 0,-0.00159 0,-0.00239c0,-0.00072 0,-0.00151 0,-0.00231c0,-0.0008 0,-0.00151 0,-0.00231c0,-0.0008 0,-0.00159 0,-0.00231c0,-0.0008 0,-0.00159 0,-0.00239c0,-0.00072 0,-0.00151 0,-0.00231c0,-0.00072 0,-0.00151 0,-0.00231c0,-0.0008 0,-0.00151 0,-0.00231c0,-0.0008 0,-0.00159 0,-0.00231c0,-0.0008 0,-0.00159 0,-0.00239c0,-0.00072 0,-0.00151 0,-0.00231c0,-0.00072 0,-0.00151 0,-0.00231c0,-0.0008 0,-0.00151 0,-0.00231c0,-0.0008 0,-0.00151 0,-0.00231c0,-0.0008 0,-0.00159 0,-0.00231c0,-0.0008 0,-0.00159 0,-0.00231c0,-0.0008 0,-0.00159 0,-0.00239c0,-0.00072 0,-0.00151 0,-0.00231c0,-0.00072 0,-0.00151 0,-0.00231c0,-0.0008 0,-0.00151 0,-0.00231c0,-0.0008 0,-0.00151 0,-0.00231c0,-0.0008 0,-0.00151 0,-0.00231c0,-0.0008 0,-0.00159 0,-0.00231c0,-0.0008 0,-0.00159 0,-0.00231c0,-0.0008 0,-0.00159 0,-0.00231c0,-0.0008 0,-0.00159 0,-0.00231c0,-0.0008 0,-0.00159 0,-0.00231c0,-0.0008 0,-0.00159 0,-0.00239c0,-0.00072 0,-0.00151 0,-0.00231c0,-0.00072 0,-0.00151 0,-0.00231c0,-0.00072 0,-0.00151 0,-0.00231c0,-0.00072 0,-0.00151 0,-0.00231c0,-0.00072 0,-0.00151 0,-0.00231c0,-0.00072 0,-0.00151 0,-0.00231c0,-0.00072 0,-0.00151 0,-0.00231c0,-0.00072 0,-0.00151 0,-0.00231c0,-0.00072 0,-0.00151 0,-0.00231c0,-0.00072 0,-0.00151 0,-0.00231c0,-0.00072 0,-0.00151 0,-0.00223c0,-0.0008 0,-0.00159 0,-0.00231c0,-0.0008 0,-0.00159 0,-0.00231c0,-0.0008 0,-0.00159 0,-0.00231c0,-0.0008 0,-0.00159 0,-0.00231c0,-0.0008 0,-0.00159 0,-0.00231c0,-0.0008 0,-0.00151 0,-0.00231c0,-0.0008 0,-0.00151 0,-0.00231c0,-0.0008 0,-0.00151 0,-0.00231c0,-0.0008 0,-0.00151 0,-0.00231c0,-0.00072 0,-0.00151 0,-0.00231c0,-0.00072 0,-0.00151 0,-0.00231c0,-0.00072 0,-0.00151 0,-0.00223c0,-0.0008 0,-0.00159 0,-0.00231c0,-0.0008 0,-0.00151 0,-0.00231c0,-0.0008 0,-0.00151 0,-0.00231c0,-0.0008 0,-0.00151 0,-0.00231c0,-0.00072 0,-0.00151 0,-0.00231c0,-0.00072 0,-0.00151 0,-0.00223c0,-0.0008 0,-0.00159 0,-0.00231c0,-0.0008 0,-0.00151 0,-0.00231c0,-0.0008 0,-0.00151 0,-0.00231c0,-0.00072 0,-0.00151 0,-0.00231c0,-0.00072 0,-0.00151 0,-0.00223c0,-0.0008 0,-0.00151 0,-0.00231c0,-0.0008 0,-0.00151 0,-0.00231c0,-0.00072 0,-0.00151 0,-0.00231c0,-0.00072 0,-0.00151 0,-0.00223c0,-0.0008 0,-0.00151 0,-0.00231c0,-0.0008 0,-0.00151 0,-0.00231c0,-0.00072 0,-0.00151 0,-0.00231c0,-0.00072 0,-0.00151 0,-0.00223c0,-0.0008 0,-0.00151 0,-0.00231c0,-0.00072 0,-0.00151 0,-0.00231c0,-0.00072 0,-0.00151 0,-0.00223c0,-0.0008 0,-0.00151 0,-0.00231c0,-0.0008 0,-0.00151 0,-0.00231c0,-0.00072 0,-0.00151 0,-0.00223c0,-0.0008 0,-0.00151 0,-0.00231c0,-0.00072 0,-0.00151 0,-0.00231c0,-0.00072 0,-0.00151 0,-0.00223c0,-0.0008 0,-0.00151 0,-0.00231c0,-0.00072 0,-0.00151 0,-0.00223c0,-0.0008 0,-0.00159 0,-0.00231c0,-0.0008 0,-0.00151 0,-0.00231c0,-0.00072 0,-0.00151 0,-0.00223c0,-0.0008 0,-0.00151 0,-0.00231c0,-0.00072 0,-0.00151 0,-0.00223c0,-0.0008 0,-0.00151 0,-0.00231c0,-0.00072 0,-0.00151 0,-0.00231c0,-0.00072 0,-0.00151 0,-0.00223c0,-0.0008 0,-0.00151 0,-0.00231c0,-0.00072 0,-0.00151 0,-0.00223c0,-0.0008 0,-0.00151 0,-0.00231c0,-0.00072 0,-0.00151 0,-0.00223c0,-0.0008 0,-0.00151 0,-0.00231c0,-0.00072 0,-0.00151 0,-0.00223c0,-0.0008 0,-0.00151 0,-0.00231c0,-0.00072 0,-0.00151 0,-0.00223c0,-0.0008 0,-0.00151 0,-0.00231c0,-0.00072 0,-0.00151 0,-0.00223c0,-0.0008 0,-0.00151 0,-0.00231c0,-0.00072 0,-0.00151 0,-0.00223c0,-0.00072 0,-0.00151 0,-0.00223c0,-0.0008 0,-0.00151 0,-0.00231c0,-0.00072 0,-0.00151 0,-0.00223c0,-0.0008 0,-0.00151 0,-0.00231c0,-0.00072 0,-0.00151 0,-0.00223c0,-0.0008 0,-0.00151 0,-0.00223c0,-0.0008 0,-0.00151 0,-0.00231c0,-0.00072 0,-0.00151 0,-0.00223c0,-0.0008 0,-0.00151 0,-0.00231c0,-0.00072 0,-0.00151 0,-0.00223c0,-0.00072 0,-0.00151 0,-0.00223c0,-0.0008 0,-0.00151 0,-0.00231c0,-0.00072 0,-0.00151 0,-0.00223c0,-0.00072 0,-0.00151 0,-0.00223c0,-0.0008 0,-0.00151 0,-0.00231c0,-0.00072 0,-0.00151 0,-0.00223c0,-0.00072 0,-0.00151 0,-0.00223c0,-0.0008 0,-0.00151 0,-0.00231c0,-0.00072 0,-0.00143 0,-0.00223c0,-0.00072 0,-0.00151 0,-0.00223c0,-0.0008 0,-0.00151 0,-0.00223c0,-0.0008 0,-0.00151 0,-0.00231c0,-0.00072 0,-0.00143 0,-0.00223c0,-0.00072 0,-0.00151 0,-0.00223c0,-0.0008 0,-0.00151 0,-0.00223c0,-0.0008 0,-0.00151 0,-0.00231c0,-0.00072 0,-0.00143 0,-0.00223c0,-0.00072 0,-0.00151 0,-0.00223c0,-0.00072 0,-0.00151 0,-0.00223c0,-0.0008 0,-0.00151 0,-0.00223c0,-0.0008 0,-0.00151 0,-0.00231c0,-0.00072 0,-0.00143 0,-0.00223c0,-0.00072 0,-0.00143 0,-0.00223c0,-0.00072 0,-0.00151 0,-0.00223c0,-0.00072 0,-0.00151 0,-0.00223c0,-0.0008 0,-0.00151 0,-0.00223c0,-0.0008 0,-0.00151 0,-0.00223c0,-0.0008 0,-0.00151 0,-0.00231c0,-0.00072 0,-0.00143 0,-0.00223c0,-0.00072 0,-0.00143 0,-0.00223c0,-0.00072 0,-0.00143 0,-0.00223c0,-0.00072 0,-0.00151 0,-0.00223c0,-0.00072 0,-0.00151 0,-0.00223c0,-0.00072 0,-0.00151 0,-0.00223c0,-0.00072 0,-0.00151 0,-0.00223c0,-0.00072 0,-0.00151 0,-0.00223c0,-0.00072 0,-0.00151 0,-0.00223c0,-0.00072 0,-0.00151 0,-0.00223c0,-0.0008 0,-0.00151 0,-0.00223c0,-0.0008 0,-0.00151 0,-0.00223c0,-0.0008 0,-0.00151 0,-0.00223c0,-0.0008 0,-0.00151 0,-0.00223c0,-0.0008 0,-0.00151 0,-0.00223c0,-0.00072 0,-0.00151 0,-0.00223c0,-0.00072 0,-0.00151 0,-0.00223c0,-0.00072 0,-0.00151 0,-0.00223c0,-0.00072 0,-0.00151 0,-0.00223c0,-0.00072 0,-0.00151 0,-0.00223c0,-0.00072 0,-0.00151 0,-0.00223c0,-0.00072 0,-0.00143 0,-0.00223c0,-0.00072 0,-0.00143 0,-0.00223c0,-0.00072 0,-0.00143 0,-0.00223c0,-0.00072 0,-0.00143 0,-0.00215c0,-0.0008 0,-0.00151 0,-0.00223c0,-0.0008 0,-0.00151 0,-0.00223c0,-0.00072 0,-0.00151 0,-0.00223c0,-0.00072 0,-0.00151 0,-0.00223c0,-0.00072 0,-0.00143 0,-0.00223c0,-0.00072 0,-0.00143 0,-0.00223c0,-0.00072 0,-0.00143 0,-0.00215c0,-0.0008 0,-0.00151 0,-0.00223c0,-0.0008 0,-0.00151 0,-0.00223c0,-0.00072 0,-0.00151 0,-0.00223c0,-0.00072 0,-0.00143 0,-0.00223c0,-0.00072 0,-0.00143 0,-0.00215c0,-0.0008 0,-0.00151 0,-0.00223c0,-0.00072 0,-0.00151 0,-0.00223c0,-0.00072 0,-0.00143 0,-0.00223c0,-0.00072 0,-0.00143 0,-0.00215c0,-0.0008 0,-0.00151 0,-0.00223c0,-0.00072 0,-0.00151 0,-0.00223c0,-0.00072 0,-0.00143 0,-0.00223c0,-0.00072 0,-0.00143 0,-0.00215c0,-0.0008 0,-0.00151 0,-0.00223c0,-0.00072 0,-0.00143 0,-0.00223c0,-0.00072 0,-0.00143 0,-0.00215c0,-0.0008 0,-0.00151 0,-0.00223c0,-0.00072 0,-0.00143 0,-0.00223c0,-0.00072 0,-0.00143 0,-0.00215c0,-0.0008 0,-0.00151 0,-0.00223c0,-0.00072 0,-0.00143 0,-0.00223c0,-0.00072 0,-0.00143 0,-0.00215c0,-0.00072 0,-0.00151 0,-0.00223c0,-0.00072 0,-0.00143 0,-0.00215c0,-0.0008 0,-0.00151 0,-0.00223c0,-0.00072 0,-0.00143 0,-0.00223c0,-0.00072 0,-0.00143 0,-0.00215c0,-0.00072 0,-0.00151 0,-0.00223c0,-0.00072 0,-0.00143 0,-0.00215c0,-0.00072 0,-0.00151 0,-0.00223c0,-0.00072 0,-0.00143 0,-0.00215c0,-0.0008 0,-0.00151 0,-0.00223c0,-0.00072 0,-0.00143 0,-0.00215c0,-0.0008 0,-0.00151 0,-0.00223c0,-0.00072 0,-0.00143 0,-0.00215c0,-0.0008 0,-0.00151 0,-0.00223c0,-0.00072 0,-0.00143 0,-0.00215c0,-0.0008 0,-0.00151 0,-0.00223c0,-0.00072 0,-0.00143 0,-0.00215c0,-0.00072 0,-0.00151 0,-0.00223c0,-0.00072 0,-0.00143 0,-0.00215c0,-0.00072 0,-0.00143 0,-0.00223c0,-0.00072 0,-0.00143 0,-0.00215c0,-0.00072 0,-0.00143 0,-0.00215c0,-0.0008 0,-0.00151 0,-0.00223c0,-0.00072 0,-0.00143 0,-0.00215c0,-0.00072 0,-0.00143 0,-0.00223c0,-0.00072 0,-0.00143 0,-0.00215c0,-0.00072 0,-0.00143 0,-0.00215c0,-0.00072 0,-0.00151 0,-0.00223c0,-0.00072 0,-0.00143 0,-0.00215c0,-0.00072 0,-0.00143 0,-0.00215c0,-0.00072 0,-0.00151 0,-0.00223c0,-0.00072 0,-0.00143 0,-0.00215c0,-0.00072 0,-0.00143 0,-0.00215c0,-0.00072 0,-0.00143 0,-0.00223c0,-0.00072 0,-0.00143 0,-0.00215c0,-0.00072 0,-0.00143 0,-0.00215c0,-0.00072 0,-0.00143 0,-0.00215c0,-0.00072 0,-0.00151 0,-0.00223c0,-0.00072 0,-0.00143 0,-0.00215c0,-0.00072 0,-0.00143 0,-0.00215c0,-0.00072 0,-0.00143 0,-0.00215c0,-0.00072 0,-0.00143 0,-0.00223c0,-0.00072 0,-0.00143 0,-0.00215c0,-0.00072 0,-0.00143 0,-0.00215c0,-0.00072 0,-0.00143 0,-0.00215c0,-0.00072 0,-0.00143 0,-0.00215c0,-0.00072 0,-0.00143 0,-0.00215c0,-0.0008 0,-0.00151 0,-0.00223c0,-0.00072 0,-0.00143 0,-0.00215c0,-0.00072 0,-0.00143 0,-0.00215c0,-0.00072 0,-0.00143 0,-0.00215c0,-0.00072 0,-0.00143 0,-0.00215c0,-0.00072 0,-0.00143 0,-0.00215c0,-0.00072 0,-0.00143 0,-0.00215c0,-0.00072 0,-0.00143 0,-0.00215c0,-0.00072 0,-0.00143 0,-0.00223c0,-0.00072 0,-0.00143 0,-0.00215c0,-0.00072 0,-0.00143 0,-0.00215c0,-0.00072 0,-0.00143 0,-0.00215c0,-0.00072 0,-0.00143 0,-0.00215c0,-0.00072 0,-0.00143 0,-0.00215c0,-0.00072 0,-0.00143 0,-0.00215c0,-0.00072 0,-0.00143 0,-0.00215c0,-0.00072 0,-0.00143 0,-0.00215c0,-0.00072 0,-0.00143 0,-0.00215c0,-0.00072 0,-0.00143 0,-0.00215c0,-0.00072 0,-0.00143 0,-0.00215c0,-0.00072 0,-0.00143 0,-0.00215c0,-0.00072 0,-0.00143 0,-0.00215c0,-0.00072 0,-0.00143 0,-0.00215c0,-0.00064 0,-0.00135 0,-0.00207c0,-0.00072 0,-0.00143 0,-0.00215c0,-0.00072 0,-0.00143 0,-0.00215c0,-0.00072 0,-0.00143 0,-0.00215c0,-0.00072 0,-0.00143 0,-0.00215c0,-0.00072 0,-0.00143 0,-0.00215c0,-0.00072 0,-0.00143 0,-0.00215c0,-0.00072 0,-0.00143 0,-0.00215c0,-0.00072 0,-0.00143 0,-0.00207c0,-0.00072 0,-0.00143 0,-0.00215c0,-0.00072 0,-0.00143 0,-0.00215c0,-0.00072 0,-0.00143 0,-0.00215c0,-0.00072 0,-0.00143 0,-0.00215c0,-0.00072 0,-0.00143 0,-0.00215c0,-0.00064 0,-0.00135 0,-0.00207c0,-0.00072 0,-0.00143 0,-0.00215c0,-0.00072 0,-0.00143 0,-0.00215c0,-0.00072 0,-0.00143 0,-0.00215c0,-0.00072 0,-0.00135 0,-0.00207c0,-0.00072 0,-0.00143 0,-0.00215c0,-0.00072 0,-0.00143 0,-0.00215c0,-0.00072 0,-0.00143 0,-0.00215c0,-0.00064 0,-0.00135 0,-0.00207c0,-0.00072 0,-0.00143 0,-0.00215c0,-0.00072 0,-0.00143 0,-0.00215c0,-0.00064 0,-0.00135 0,-0.00207c0,-0.00072 0,-0.00143 0,-0.00215c0,-0.00072 0,-0.00143 0,-0.00215c0,-0.00064 0,-0.00135 0,-0.00207c0,-0.00072 0,-0.00143 0,-0.00215c0,-0.00072 0,-0.00143 0,-0.00207c0,-0.00072 0,-0.00143 0,-0.00215c0,-0.00072 0,-0.00143 0,-0.00215c0,-0.00072 0,-0.00135 0,-0.00207c0,-0.00072 0,-0.00143 0,-0.00215c0,-0.00072 0,-0.00143 0,-0.00207c0,-0.00072 0,-0.00143 0,-0.00215c0,-0.00072 0,-0.00143 0,-0.00207c0,-0.00072 0,-0.00143 0,-0.00215c0,-0.00072 0,-0.00143 0,-0.00215c0,-0.00064 0,-0.00135 0,-0.00207c0,-0.00072 0,-0.00143 0,-0.00215c0,-0.00064 0,-0.00135 0,-0.00207c0,-0.00072 0,-0.00143 0,-0.00215c0,-0.00064 0,-0.00135 0,-0.00207c0,-0.00072 0,-0.00143 0,-0.00207c0,-0.00072 0,-0.00143 0,-0.00215c0,-0.00072 0,-0.00143 0,-0.00207c0,-0.00072 0,-0.00143 0,-0.00215c0,-0.00072 0,-0.00135 0,-0.00207c0,-0.00072 0,-0.00143 0,-0.00215c0,-0.00064 0,-0.00135 0,-0.00207c0,-0.00072 0,-0.00143 0,-0.00207c0,-0.00072 0,-0.00143 0,-0.00215c0,-0.00072 0,-0.00135 0,-0.00207c0,-0.00072 0,-0.00143 0,-0.00207c0,-0.00072 0,-0.00143 0,-0.00215c0,-0.00072 0,-0.00135 0,-0.00207c0,-0.00072 0,-0.00143 0,-0.00207c0,-0.00072 0,-0.00143 0,-0.00215c0,-0.00072 0,-0.00135 0,-0.00207c0,-0.00072 0,-0.00143 0,-0.00207l-0.79529,0c0,0.00064 0,0.00135 0,0.00207c0,0.00072 0,0.00135 0,0.00207c0,0.00072 0,0.00143 0,0.00215c0,0.00064 0,0.00135 0,0.00207c0,0.00072 0,0.00135 0,0.00207c0,0.00072 0,0.00143 0,0.00215c0,0.00064 0,0.00135 0,0.00207c0,0.00072 0,0.00135 0,0.00207c0,0.00072 0,0.00143 0,0.00215c0,0.00064 0,0.00135 0,0.00207c0,0.00072 0,0.00143 0,0.00207c0,0.00072 0,0.00143 0,0.00215c0,0.00072 0,0.00135 0,0.00207c0,0.00072 0,0.00143 0,0.00215c0,0.00064 0,0.00135 0,0.00207c0,0.00072 0,0.00143 0,0.00215c0,0.00064 0,0.00135 0,0.00207c0,0.00072 0,0.00143 0,0.00207c0,0.00072 0,0.00143 0,0.00215c0,0.00072 0,0.00143 0,0.00207c0,0.00072 0,0.00143 0,0.00215c0,0.00072 0,0.00143 0,0.00207c0,0.00072 0,0.00143 0,0.00215c0,0.00072 0,0.00143 0,0.00215c0,0.00064 0,0.00135 0,0.00207c0,0.00072 0,0.00143 0,0.00215c0,0.00064 0,0.00135 0,0.00207c0,0.00072 0,0.00143 0,0.00215c0,0.00072 0,0.00135 0,0.00207c0,0.00072 0,0.00143 0,0.00215c0,0.00072 0,0.00143 0,0.00215c0,0.00064 0,0.00135 0,0.00207c0,0.00072 0,0.00143 0,0.00215c0,0.00072 0,0.00143 0,0.00207c0,0.00072 0,0.00143 0,0.00215c0,0.00072 0,0.00143 0,0.00215c0,0.00072 0,0.00143 0,0.00207c0,0.00072 0,0.00143 0,0.00215c0,0.00072 0,0.00143 0,0.00215c0,0.00072 0,0.00143 0,0.00207c0,0.00072 0,0.00143 0,0.00215c0,0.00072 0,0.00143 0,0.00215c0,0.00072 0,0.00143 0,0.00215c0,0.00072 0,0.00135 0,0.00207c0,0.00072 0,0.00143 0,0.00215c0,0.00072 0,0.00143 0,0.00215c0,0.00072 0,0.00143 0,0.00215c0,0.00072 0,0.00143 0,0.00207c0,0.00072 0,0.00143 0,0.00215c0,0.00072 0,0.00143 0,0.00215c0,0.00072 0,0.00143 0,0.00215c0,0.00072 0,0.00143 0,0.00215c0,0.00072 0,0.00143 0,0.00215c0,0.00064 0,0.00135 0,0.00207c0,0.00072 0,0.00143 0,0.00215c0,0.00072 0,0.00143 0,0.00215c0,0.00072 0,0.00143 0,0.00215c0,0.00072 0,0.00143 0,0.00215c0,0.00072 0,0.00143 0,0.00215c0,0.00072 0,0.00143 0,0.00215c0,0.00072 0,0.00143 0,0.00215c0,0.00072 0,0.00143 0,0.00207c0,0.00072 0,0.00143 0,0.00215c0,0.00072 0,0.00143 0,0.00215c0,0.00072 0,0.00143 0,0.00215c0,0.00072 0,0.00143 0,0.00215c0,0.00072 0,0.00143 0,0.00215c0,0.00072 0,0.00143 0,0.00215c0,0.00072 0,0.00143 0,0.00215c0,0.00072 0,0.00143 0,0.00215c0,0.00072 0,0.00143 0,0.00215c0,0.00072 0,0.00143 0,0.00215c0,0.00072 0,0.00143 0,0.00215c0,0.00072 0,0.00143 0,0.00215c0,0.00072 0,0.00143 0,0.00215c0,0.00072 0,0.00143 0,0.00215c0,0.0008 0,0.00151 0,0.00223c0,0.00072 0,0.00143 0,0.00215c0,0.00072 0,0.00143 0,0.00215c0,0.00072 0,0.00143 0,0.00215c0,0.00072 0,0.00143 0,0.00215c0,0.00072 0,0.00143 0,0.00215c0,0.00072 0,0.00143 0,0.00215c0,0.00072 0,0.00143 0,0.00215c0,0.00072 0,0.00143 0,0.00223c0,0.00072 0,0.00143 0,0.00215c0,0.00072 0,0.00143 0,0.00215c0,0.00072 0,0.00143 0,0.00215c0,0.00072 0,0.00143 0,0.00215c0,0.00072 0,0.00143 0,0.00215c0,0.0008 0,0.00151 0,0.00223c0,0.00072 0,0.00143 0,0.00215c0,0.00072 0,0.00143 0,0.00215c0,0.00072 0,0.00143 0,0.00215c0,0.00072 0,0.00151 0,0.00223c0,0.00072 0,0.00143 0,0.00215c0,0.00072 0,0.00143 0,0.00215c0,0.00072 0,0.00143 0,0.00215c0,0.0008 0,0.00151 0,0.00223c0,0.00072 0,0.00143 0,0.00215c0,0.00072 0,0.00143 0,0.00215c0,0.00072 0,0.00151 0,0.00223c0,0.00072 0,0.00143 0,0.00215c0,0.00072 0,0.00143 0,0.00215c0,0.00072 0,0.00151 0,0.00223c0,0.00072 0,0.00143 0,0.00215c0,0.00072 0,0.00143 0,0.00215c0,0.0008 0,0.00151 0,0.00223c0,0.00072 0,0.00143 0,0.00215c0,0.00072 0,0.00143 0,0.00223c0,0.00072 0,0.00143 0,0.00215c0,0.00072 0,0.00143 0,0.00215c0,0.0008 0,0.00151 0,0.00223c0,0.00072 0,0.00143 0,0.00215c0,0.00072 0,0.00151 0,0.00223c0,0.00072 0,0.00143 0,0.00215c0,0.00072 0,0.00143 0,0.00223c0,0.00072 0,0.00143 0,0.00215c0,0.00072 0,0.00143 0,0.00223c0,0.00072 0,0.00143 0,0.00215c0,0.00072 0,0.00143 0,0.00223c0,0.00072 0,0.00143 0,0.00215c0,0.00072 0,0.00143 0,0.00223c0,0.00072 0,0.00143 0,0.00215c0,0.00072 0,0.00151 0,0.00223c0,0.00072 0,0.00143 0,0.00215c0,0.00072 0,0.00151 0,0.00223c0,0.00072 0,0.00143 0,0.00215c0,0.0008 0,0.00151 0,0.00223c0,0.00072 0,0.00143 0,0.00223c0,0.00072 0,0.00143 0,0.00215c0,0.00072 0,0.00151 0,0.00223c0,0.00072 0,0.00143 0,0.00215c0,0.0008 0,0.00151 0,0.00223c0,0.00072 0,0.00143 0,0.00223c0,0.00072 0,0.00143 0,0.00215c0,0.0008 0,0.00151 0,0.00223c0,0.00072 0,0.00143 0,0.00223c0,0.00072 0,0.00143 0,0.00215c0,0.0008 0,0.00151 0,0.00223c0,0.00072 0,0.00143 0,0.00223c0,0.00072 0,0.00143 0,0.00215c0,0.0008 0,0.00151 0,0.00223c0,0.00072 0,0.00151 0,0.00223c0,0.00072 0,0.00143 0,0.00223c0,0.00072 0,0.00143 0,0.00215c0,0.0008 0,0.00151 0,0.00223c0,0.00072 0,0.00151 0,0.00223c0,0.00072 0,0.00143 0,0.00223c0,0.00072 0,0.00143 0,0.00215c0,0.0008 0,0.00151 0,0.00223c0,0.00072 0,0.00151 0,0.00223c0,0.00072 0,0.00143 0,0.00223c0,0.00072 0,0.00143 0,0.00223c0,0.00072 0,0.00143 0,0.00215c0,0.0008 0,0.00151 0,0.00223c0,0.0008 0,0.00151 0,0.00223c0,0.00072 0,0.00151 0,0.00223c0,0.00072 0,0.00151 0,0.00223c0,0.00072 0,0.00143 0,0.00223c0,0.00072 0,0.00143 0,0.00223c0,0.00072 0,0.00143 0,0.00215c0,0.0008 0,0.00151 0,0.00223c0,0.0008 0,0.00151 0,0.00223c0,0.0008 0,0.00151 0,0.00223c0,0.00072 0,0.00151 0,0.00223c0,0.00072 0,0.00151 0,0.00223c0,0.00072 0,0.00151 0,0.00223c0,0.00072 0,0.00151 0,0.00223c0,0.00072 0,0.00151 0,0.00223c0,0.00072 0,0.00151 0,0.00223c0,0.00072 0,0.00143 0,0.00223c0,0.00072 0,0.00143 0,0.00223c0,0.00072 0,0.00143 0,0.00223c0,0.00072 0,0.00143 0,0.00223c0,0.00072 0,0.00143 0,0.00223c0,0.00072 0,0.00151 0,0.00223c0,0.00072 0,0.00151 0,0.00223c0,0.00072 0,0.00151 0,0.00223c0,0.00072 0,0.00151 0,0.00223c0,0.00072 0,0.00151 0,0.00223c0,0.00072 0,0.00151 0,0.00223c0,0.00072 0,0.00151 0,0.00223c0,0.0008 0,0.00151 0,0.00223c0,0.0008 0,0.00151 0,0.00223c0,0.0008 0,0.00151 0,0.00223c0,0.0008 0,0.00151 0,0.00231c0,0.00072 0,0.00143 0,0.00223c0,0.00072 0,0.00143 0,0.00223c0,0.00072 0,0.00151 0,0.00223c0,0.00072 0,0.00151 0,0.00223c0,0.0008 0,0.00151 0,0.00223c0,0.0008 0,0.00151 0,0.00223c0,0.0008 0,0.00151 0,0.00231c0,0.00072 0,0.00143 0,0.00223c0,0.00072 0,0.00151 0,0.00223c0,0.00072 0,0.00151 0,0.00223c0,0.0008 0,0.00151 0,0.00223c0,0.0008 0,0.00151 0,0.00231c0,0.00072 0,0.00143 0,0.00223c0,0.00072 0,0.00151 0,0.00223c0,0.0008 0,0.00151 0,0.00223c0,0.0008 0,0.00151 0,0.00231c0,0.00072 0,0.00143 0,0.00223c0,0.00072 0,0.00151 0,0.00223c0,0.0008 0,0.00151 0,0.00223c0,0.0008 0,0.00151 0,0.00231c0,0.00072 0,0.00151 0,0.00223c0,0.00072 0,0.00151 0,0.00223c0,0.0008 0,0.00151 0,0.00231c0,0.00072 0,0.00151 0,0.00223c0,0.00072 0,0.00151 0,0.00223c0,0.0008 0,0.00151 0,0.00231c0,0.00072 0,0.00151 0,0.00223c0,0.00072 0,0.00151 0,0.00223c0,0.0008 0,0.00151 0,0.00231c0,0.00072 0,0.00151 0,0.00223c0,0.0008 0,0.00151 0,0.00231c0,0.00072 0,0.00143 0,0.00223c0,0.00072 0,0.00151 0,0.00223c0,0.0008 0,0.00151 0,0.00231c0,0.00072 0,0.00151 0,0.00223c0,0.0008 0,0.00151 0,0.00231c0,0.00072 0,0.00151 0,0.00223c0,0.00072 0,0.00151 0,0.00223c0,0.0008 0,0.00151 0,0.00231c0,0.00072 0,0.00151 0,0.00223c0,0.0008 0,0.00151 0,0.00231c0,0.00072 0,0.00151 0,0.00223c0,0.0008 0,0.00151 0,0.00231c0,0.00072 0,0.00151 0,0.00223c0,0.0008 0,0.00151 0,0.00231c0,0.00072 0,0.00151 0,0.00223c0,0.0008 0,0.00151 0,0.00231c0,0.00072 0,0.00151 0,0.00223c0,0.0008 0,0.00151 0,0.00231c0,0.00072 0,0.00151 0,0.00223c0,0.0008 0,0.00159 0,0.00231c0,0.0008 0,0.00151 0,0.00231c0,0.00072 0,0.00151 0,0.00223c0,0.0008 0,0.00151 0,0.00231c0,0.00072 0,0.00151 0,0.00223c0,0.0008 0,0.00151 0,0.00231c0,0.00072 0,0.00151 0,0.00231c0,0.00072 0,0.00151 0,0.00223c0,0.0008 0,0.00151 0,0.00231c0,0.00072 0,0.00151 0,0.00223c0,0.0008 0,0.00159 0,0.00231c0,0.0008 0,0.00151 0,0.00231c0,0.00072 0,0.00151 0,0.00223c0,0.0008 0,0.00151 0,0.00231c0,0.0008 0,0.00151 0,0.00231c0,0.00072 0,0.00151 0,0.00223c0,0.0008 0,0.00159 0,0.00231c0,0.0008 0,0.00151 0,0.00231c0,0.00072 0,0.00151 0,0.00223c0,0.0008 0,0.00159 0,0.00231c0,0.0008 0,0.00151 0,0.00231c0,0.0008 0,0.00151 0,0.00231c0,0.00072 0,0.00151 0,0.00223c0,0.0008 0,0.00159 0,0.00231c0,0.0008 0,0.00151 0,0.00231c0,0.0008 0,0.00151 0,0.00231c0,0.00072 0,0.00151 0,0.00223c0,0.0008 0,0.00159 0,0.00231c0,0.0008 0,0.00151 0,0.00231c0,0.0008 0,0.00151 0,0.00231c0,0.00072 0,0.00151 0,0.00231c0,0.00072 0,0.00151 0,0.00223c0,0.0008 0,0.00159 0,0.00231c0,0.0008 0,0.00151 0,0.00231c0,0.0008 0,0.00151 0,0.00231c0,0.0008 0,0.00151 0,0.00231c0,0.00072 0,0.00151 0,0.00231c0,0.00072 0,0.00151 0,0.00223c0,0.0008 0,0.00159 0,0.00231c0,0.0008 0,0.00159 0,0.00231c0,0.0008 0,0.00151 0,0.00231c0,0.0008 0,0.00151 0,0.00231c0,0.0008 0,0.00151 0,0.00231c0,0.0008 0,0.00151 0,0.00231c0,0.00072 0,0.00151 0,0.00231c0,0.00072 0,0.00151 0,0.00231c0,0.00072 0,0.00151 0,0.00231c0,0.00072 0,0.00151 0,0.00231c0,0.00072 0,0.00151 0,0.00231c0,0.00072 0,0.00151 0,0.00223c0,0.0008 0,0.00159 0,0.00231c0,0.0008 0,0.00159 0,0.00231c0,0.0008 0,0.00159 0,0.00231c0,0.0008 0,0.00159 0,0.00231c0,0.0008 0,0.00159 0,0.00231c0,0.0008 0,0.00159 0,0.00231c0,0.0008 0,0.00159 0,0.00231c0,0.0008 0,0.00159 0,0.00231c0,0.0008 0,0.00159 0,0.00231c0,0.0008 0,0.00159 0,0.00231c0,0.0008 0,0.00159 0,0.00239c0,0.00072 0,0.00151 0,0.00231c0,0.00072 0,0.00151 0,0.00231c0,0.00072 0,0.00151 0,0.00231c0,0.00072 0,0.00151 0,0.00231c0,0.00072 0,0.00151 0,0.00231c0,0.0008 0,0.00151 0,0.00231c0,0.0008 0,0.00151 0,0.00231c0,0.0008 0,0.00151 0,0.00231c0,0.0008 0,0.00159 0,0.00231c0,0.0008 0,0.00159 0,0.00231c0,0.0008 0,0.00159 0,0.00239c0,0.00072 0,0.00151 0,0.00231c0,0.00072 0,0.00151 0,0.00231c0,0.0008 0,0.00151 0,0.00231c0,0.0008 0,0.00151 0,0.00231c0,0.0008 0,0.00159 0,0.00231c0,0.0008 0,0.00159 0,0.00231c0,0.0008 0,0.00159 0,0.00239c0,0.00072 0,0.00151 0,0.00231c0,0.0008 0,0.00151 0,0.00231c0,0.0008 0,0.00159 0,0.00231c0,0.0008 0,0.00159 0,0.00231c0,0.0008 0,0.00159 0,0.00239c0,0.00072 0,0.00151 0,0.00231c0,0.0008 0,0.00151 0,0.00231c0,0.0008 0,0.00159 0,0.00231c0,0.0008 0,0.00159 0,0.00239c0,0.00072 0,0.00151 0,0.00231c0,0.0008 0,0.00151 0,0.00231c0,0.0008 0,0.00159 0,0.00231c0,0.0008 0,0.00159 0,0.00239c0,0.0008 0,0.00151 0,0.00231c0,0.0008 0,0.00159 0,0.00231c0,0.0008 0,0.00159 0,0.00239c0,0.00072 0,0.00151 0,0.00231c0,0.0008 0,0.00159 0,0.00231c0,0.0008 0,0.00159 0,0.00239c0,0.00072 0,0.00151 0,0.00231c0,0.0008 0,0.00159 0,0.00231c0,0.0008 0,0.00159 0,0.00239c0,0.00072 0,0.00151 0,0.00231c0,0.0008 0,0.00159 0,0.00231c0,0.0008 0,0.00159 0,0.00239c0,0.0008 0,0.00151 0,0.00231c0,0.0008 0,0.00159 0,0.00239c0,0.00072 0,0.00151 0,0.00231c0,0.0008 0,0.00159 0,0.00231c0,0.0008 0,0.00159 0,0.00239c0,0.0008 0,0.00151 0,0.00231c0,0.0008 0,0.00159 0,0.00239c0,0.00072 0,0.00151 0,0.00231c0,0.0008 0,0.00159 0,0.00231c0,0.0008 0,0.00159 0,0.00239c0,0.0008 0,0.00159 0,0.00231c0,0.0008 0,0.00159 0,0.00239c0,0.0008 0,0.00151 0,0.00231c0,0.0008 0,0.00159 0,0.00239c0,0.0008 0,0.00151 0,0.00231c0,0.0008 0,0.00159 0,0.00239c0,0.0008 0,0.00151 0,0.00231c0,0.0008 0,0.00159 0,0.00239c0,0.0008 0,0.00151 0,0.00231c0,0.0008 0,0.00159 0,0.00239c0,0.0008 0,0.00159 0,0.00231c0,0.0008 0,0.00159 0,0.00239c0,0.0008 0,0.00159 0,0.00231c0,0.0008 0,0.00159 0,0.00239c0,0.0008 0,0.00159 0,0.00239c0,0.00072 0,0.00151 0,0.00231c0,0.0008 0,0.00159 0,0.00239c0,0.0008 0,0.00151 0,0.00231c0,0.0008 0,0.00159 0,0.00239c0,0.0008 0,0.00159 0,0.00231c0,0.0008 0,0.00159 0,0.00239c0,0.0008 0,0.00159 0,0.00239c0,0.0008 0,0.00151 0,0.00231c0,0.0008 0,0.00159 0,0.00239c0,0.0008 0,0.00159 0,0.00231c0,0.0008 0,0.00159 0,0.00239c0,0.0008 0,0.00159 0,0.00239c0,0.0008 0,0.00159 0,0.00231c0,0.0008 0,0.00159 0,0.00239c0,0.0008 0,0.00159 0,0.00239c0,0.0008 0,0.00159 0,0.00231c0,0.0008 0,0.00159 0,0.00239c0,0.0008 0,0.00159 0,0.00239c0,0.0008 0,0.00159 0,0.00231c0,0.0008 0,0.00159 0,0.00239c0,0.0008 0,0.00159 0,0.00239c0,0.0008 0,0.00159 0,0.00239c0,0.0008 0,0.00151 0,0.00231c0,0.0008 0,0.00159 0,0.00239c0,0.0008 0,0.00159 0,0.00239c0,0.0008 0,0.00159 0,0.00239c0,0.00072 0,0.00151 0,0.00231c0,0.0008 0,0.00159 0,0.00239c0,0.0008 0,0.00159 0,0.00239c0,0.0008 0,0.00159 0,0.00239c0,0.00072 0,0.00151 0,0.00231c0,0.0008 0,0.00159 0,0.00239c0,0.0008 0,0.00159 0,0.00239c0,0.0008 0,0.00159 0,0.00239c0,0.0008 0,0.00159 0,0.00239c0,0.00072 0,0.00151 0,0.00231c0,0.0008 0,0.00159 0,0.00239c0,0.0008 0,0.00159 0,0.00239c0,0.0008 0,0.00159 0,0.00239c0,0.0008 0,0.00159 0,0.00239c0,0.0008 0,0.00159 0,0.00231c0,0.0008 0,0.00159 0,0.00239c0,0.0008 0,0.00159 0,0.00239c0,0.0008 0,0.00159 0,0.00239c0,0.0008 0,0.00159 0,0.00239c0,0.0008 0,0.00159 0,0.00239c0,0.0008 0,0.00159 0,0.00239c0,0.0008 0,0.00159 0,0.00239c0,0.0008 0,0.00159 0,0.00231c0,0.0008 0,0.00159 0,0.00239c0,0.0008 0,0.00159 0,0.00239c0,0.0008 0,0.00159 0,0.00239c0,0.0008 0,0.00159 0,0.00239c0,0.0008 0,0.00159 0,0.00239c0,0.0008 0,0.00159 0,0.00239c0,0.0008 0,0.00159 0,0.00239c0,0.0008 0,0.00159 0,0.00239c0,0.0008 0,0.00159 0,0.00239c0,0.0008 0,0.00159 0,0.00239c0,0.0008 0,0.00159 0,0.00239c0,0.0008 0,0.00159 0,0.00239c0,0.0008 0,0.00159 0,0.00239c0,0.0008 0,0.00159 0,0.00239c0,0.0008 0,0.00159 0,0.00239c0,0.0008 0,0.00159 0,0.00239c0,0.0008 0,0.00159 0,0.00239c0,0.0008 0,0.00159 0,0.00239c0,0.0008 0,0.00159 0,0.00239c0,0.0008 0,0.00159 0,0.00239c0,0.0008 0,0.00159 0,0.00239c0,0.0008 0,0.00159 0,0.00239c0,0.0008 0,0.00159 0,0.00239c0,0.0008 0,0.00159 0,0.00239c0,0.0008 0,0.00159 0,0.00239c0,0.0008 0,0.00159 0,0.00239c0,0.0008 0,0.00159 0,0.00239c0,0.0008 0,0.00159 0,0.00239c0,0.0008 0,0.00159 0,0.00239c0,0.0008 0,0.00159 0,0.00247c0,0.0008 0,0.00159 0,0.00239c0,0.0008 0,0.00159 0,0.00239c0,0.0008 0,0.00159 0,0.00239c0,0.0008 0,0.00159 0,0.00239c0,0.0008 0,0.00159 0,0.00239c0,0.0008 0,0.00159 0,0.00239c0,0.0008 0,0.00159 0,0.00239c0,0.0008 0,0.00159 0,0.00247c0,0.0008 0,0.00159 0,0.00239c0,0.0008 0,0.00159 0,0.00239c0,0.0008 0,0.00159 0,0.00239c0,0.0008 0,0.00159 0,0.00239c0,0.0008 0,0.00159 0,0.00239c0,0.0008 0,0.00159 0,0.00247c0,0.0008 0,0.00159 0,0.00239c0,0.0008 0,0.00159 0,0.00239c0,0.0008 0,0.00159 0,0.00239c0,0.0008 0,0.00159 0,0.00239c0,0.0008 0,0.00159 0,0.00247c0,0.0008 0,0.00159 0,0.00239c0,0.0008 0,0.00159 0,0.00239c0,0.0008 0,0.00159 0,0.00239c0,0.0008 0,0.00159 0,0.00239c0,0.00087 0,0.00167 0,0.00247c0,0.0008 0,0.00159 0,0.00239c0,0.0008 0,0.00159 0,0.00239c0,0.0008 0,0.00159 0,0.00247c0,0.0008 0,0.00159 0,0.00239c0,0.0008 0,0.00159 0,0.00239c0,0.0008 0,0.00159 0,0.00239c0,0.0008 0,0.00167 0,0.00247c0,0.0008 0,0.00159 0,0.00239c0,0.0008 0,0.00159 0,0.00239c0,0.0008 0,0.00159 0,0.00247c0,0.0008 0,0.00159 0,0.00239c0,0.0008 0,0.00159 0,0.00239c0,0.0008 0,0.00159 0,0.00247c0,0.0008 0,0.00159 0,0.00239c0,0.0008 0,0.00159 0,0.00239c0,0.0008 0,0.00159 0,0.00247c0,0.0008 0,0.00159 0,0.00239c0,0.0008 0,0.00159 0,0.00239c0,0.0008 0,0.00167 0,0.00247c0,0.0008 0,0.00159 0,0.00239c0,0.0008 0,0.00159 0,0.00239c0,0.00087 0,0.00167 0,0.00247c0,0.0008 0,0.00159 0,0.00239c0,0.0008 0,0.00159 0,0.00247c0,0.0008 0,0.00159 0,0.00239c0,0.0008 0,0.00159 0,0.00239c0,0.0008 0,0.00167 0,0.00247c0,0.0008 0,0.00159 0,0.00239c0,0.0008 0,0.00159 0,0.00247c0,0.0008 0,0.00159 0,0.00239c0,0.0008 0,0.00159 0,0.00239c0,0.00087 0,0.00167 0,0.00247c0,0.0008 0,0.00159 0,0.00239c0,0.00087 0,0.00167 0,0.00247c0,0.0008 0,0.00159 0,0.00239c0,0.0008 0,0.00167 0,0.00247c0,0.0008 0,0.00159 0,0.00239c0,0.0008 0,0.00167 0,0.00247c0,0.0008 0,0.00159 0,0.00239c0,0.0008 0,0.00167 0,0.00247c0,0.0008 0,0.00159 0,0.00239c0,0.0008 0,0.00167 0,0.00247c0,0.0008 0,0.00159 0,0.00239l0.79529,0zm1.352,-2.51651l2.33285,0l0,-0.79529l-2.33285,0l0,0.79529zm3.68485,1.35173c0,0.00064 0,0.00135 0,0.00207c0,0.00072 0,0.00135 0,0.00207c0,0.00072 0,0.00143 0,0.00215c0,0.00064 0,0.00135 0,0.00207c0,0.00072 0,0.00135 0,0.00207c0,0.00072 0,0.00143 0,0.00215c0,0.00064 0,0.00135 0,0.00207c0,0.00072 0,0.00135 0,0.00207c0,0.00072 0,0.00143 0,0.00215c0,0.00064 0,0.00135 0,0.00207c0,0.00072 0,0.00143 0,0.00207c0,0.00072 0,0.00143 0,0.00215c0,0.00072 0,0.00135 0,0.00207c0,0.00072 0,0.00143 0,0.00215c0,0.00064 0,0.00135 0,0.00207c0,0.00072 0,0.00143 0,0.00215c0,0.00064 0,0.00135 0,0.00207c0,0.00072 0,0.00143 0,0.00207c0,0.00072 0,0.00143 0,0.00215c0,0.00072 0,0.00143 0,0.00207c0,0.00072 0,0.00143 0,0.00215c0,0.00072 0,0.00143 0,0.00207c0,0.00072 0,0.00143 0,0.00215c0,0.00072 0,0.00143 0,0.00215c0,0.00064 0,0.00135 0,0.00207c0,0.00072 0,0.00143 0,0.00215c0,0.00064 0,0.00135 0,0.00207c0,0.00072 0,0.00143 0,0.00215c0,0.00072 0,0.00135 0,0.00207c0,0.00072 0,0.00143 0,0.00215c0,0.00072 0,0.00143 0,0.00215c0,0.00064 0,0.00135 0,0.00207c0,0.00072 0,0.00143 0,0.00215c0,0.00072 0,0.00143 0,0.00207c0,0.00072 0,0.00143 0,0.00215c0,0.00072 0,0.00143 0,0.00215c0,0.00072 0,0.00143 0,0.00207c0,0.00072 0,0.00143 0,0.00215c0,0.00072 0,0.00143 0,0.00215c0,0.00072 0,0.00143 0,0.00207c0,0.00072 0,0.00143 0,0.00215c0,0.00072 0,0.00143 0,0.00215c0,0.00072 0,0.00143 0,0.00215c0,0.00072 0,0.00135 0,0.00207c0,0.00072 0,0.00143 0,0.00215c0,0.00072 0,0.00143 0,0.00215c0,0.00072 0,0.00143 0,0.00215c0,0.00072 0,0.00143 0,0.00207c0,0.00072 0,0.00143 0,0.00215c0,0.00072 0,0.00143 0,0.00215c0,0.00072 0,0.00143 0,0.00215c0,0.00072 0,0.00143 0,0.00215c0,0.00072 0,0.00143 0,0.00215c0,0.00064 0,0.00135 0,0.00207c0,0.00072 0,0.00143 0,0.00215c0,0.00072 0,0.00143 0,0.00215c0,0.00072 0,0.00143 0,0.00215c0,0.00072 0,0.00143 0,0.00215c0,0.00072 0,0.00143 0,0.00215c0,0.00072 0,0.00143 0,0.00215c0,0.00072 0,0.00143 0,0.00215c0,0.00072 0,0.00135 0,0.00207c0,0.00072 0,0.00143 0,0.00215c0,0.00072 0,0.00143 0,0.00215c0,0.00072 0,0.00143 0,0.00215c0,0.00072 0,0.00143 0,0.00215c0,0.00072 0,0.00143 0,0.00215c0,0.00072 0,0.00143 0,0.00215c0,0.00072 0,0.00143 0,0.00215c0,0.00072 0,0.00143 0,0.00215c0,0.00072 0,0.00143 0,0.00215c0,0.00072 0,0.00143 0,0.00215c0,0.00072 0,0.00143 0,0.00215c0,0.00072 0,0.00143 0,0.00215c0,0.00072 0,0.00143 0,0.00215c0,0.00072 0,0.00143 0,0.00215c0,0.00072 0,0.00151 0,0.00223c0,0.00072 0,0.00143 0,0.00215c0,0.00072 0,0.00143 0,0.00215c0,0.00072 0,0.00143 0,0.00215c0,0.00072 0,0.00143 0,0.00215c0,0.00072 0,0.00143 0,0.00215c0,0.00072 0,0.00143 0,0.00215c0,0.00072 0,0.00143 0,0.00215c0,0.00072 0,0.00143 0,0.00223c0,0.00072 0,0.00143 0,0.00215c0,0.00072 0,0.00143 0,0.00215c0,0.00072 0,0.00143 0,0.00215c0,0.00072 0,0.00143 0,0.00215c0,0.00072 0,0.00143 0,0.00215c0,0.00072 0,0.00151 0,0.00223c0,0.00072 0,0.00143 0,0.00215c0,0.00072 0,0.00143 0,0.00215c0,0.00072 0,0.00143 0,0.00215c0,0.00072 0,0.00151 0,0.00223c0,0.00072 0,0.00143 0,0.00215c0,0.00072 0,0.00143 0,0.00215c0,0.00072 0,0.00143 0,0.00215c0,0.0008 0,0.00151 0,0.00223c0,0.00072 0,0.00143 0,0.00215c0,0.00072 0,0.00143 0,0.00215c0,0.00072 0,0.00151 0,0.00223c0,0.00072 0,0.00143 0,0.00215c0,0.00072 0,0.00143 0,0.00215c0,0.00072 0,0.00151 0,0.00223c0,0.00072 0,0.00143 0,0.00215c0,0.00072 0,0.00143 0,0.00215c0,0.0008 0,0.00151 0,0.00223c0,0.00072 0,0.00143 0,0.00215c0,0.00072 0,0.00143 0,0.00223c0,0.00072 0,0.00143 0,0.00215c0,0.00072 0,0.00143 0,0.00215c0,0.0008 0,0.00151 0,0.00223c0,0.00072 0,0.00143 0,0.00215c0,0.00072 0,0.00151 0,0.00223c0,0.00072 0,0.00143 0,0.00215c0,0.00072 0,0.00143 0,0.00223c0,0.00072 0,0.00143 0,0.00215c0,0.00072 0,0.00143 0,0.00223c0,0.00072 0,0.00143 0,0.00215c0,0.00072 0,0.00143 0,0.00223c0,0.00072 0,0.00143 0,0.00215c0,0.00072 0,0.00143 0,0.00223c0,0.00072 0,0.00143 0,0.00215c0,0.00072 0,0.00151 0,0.00223c0,0.00072 0,0.00143 0,0.00215c0,0.00072 0,0.00151 0,0.00223c0,0.00072 0,0.00143 0,0.00215c0,0.0008 0,0.00151 0,0.00223c0,0.00072 0,0.00143 0,0.00223c0,0.00072 0,0.00143 0,0.00215c0,0.00072 0,0.00151 0,0.00223c0,0.00072 0,0.00143 0,0.00215c0,0.0008 0,0.00151 0,0.00223c0,0.00072 0,0.00143 0,0.00223c0,0.00072 0,0.00143 0,0.00215c0,0.0008 0,0.00151 0,0.00223c0,0.00072 0,0.00143 0,0.00223c0,0.00072 0,0.00143 0,0.00215c0,0.0008 0,0.00151 0,0.00223c0,0.00072 0,0.00143 0,0.00223c0,0.00072 0,0.00143 0,0.00215c0,0.0008 0,0.00151 0,0.00223c0,0.00072 0,0.00151 0,0.00223c0,0.00072 0,0.00143 0,0.00223c0,0.00072 0,0.00143 0,0.00215c0,0.0008 0,0.00151 0,0.00223c0,0.00072 0,0.00151 0,0.00223c0,0.00072 0,0.00143 0,0.00223c0,0.00072 0,0.00143 0,0.00215c0,0.0008 0,0.00151 0,0.00223c0,0.00072 0,0.00151 0,0.00223c0,0.00072 0,0.00143 0,0.00223c0,0.00072 0,0.00143 0,0.00223c0,0.00072 0,0.00143 0,0.00215c0,0.0008 0,0.00151 0,0.00223c0,0.00072 0,0.00151 0,0.00223c0,0.00072 0,0.00151 0,0.00223c0,0.00072 0,0.00143 0,0.00223c0,0.00072 0,0.00143 0,0.00223c0,0.00072 0,0.00143 0,0.00223c0,0.00072 0,0.00143 0,0.00215c0,0.0008 0,0.00151 0,0.00223c0,0.0008 0,0.00151 0,0.00223c0,0.0008 0,0.00151 0,0.00223c0,0.00072 0,0.00151 0,0.00223c0,0.00072 0,0.00151 0,0.00223c0,0.00072 0,0.00151 0,0.00223c0,0.00072 0,0.00151 0,0.00223c0,0.00072 0,0.00151 0,0.00223c0,0.00072 0,0.00143 0,0.00223c0,0.00072 0,0.00143 0,0.00223c0,0.00072 0,0.00143 0,0.00223c0,0.00072 0,0.00143 0,0.00223c0,0.00072 0,0.00143 0,0.00223c0,0.00072 0,0.00143 0,0.00223c0,0.00072 0,0.00143 0,0.00223c0,0.00072 0,0.00151 0,0.00223c0,0.00072 0,0.00151 0,0.00223c0,0.00072 0,0.00151 0,0.00223c0,0.00072 0,0.00151 0,0.00223c0,0.00072 0,0.00151 0,0.00223c0,0.00072 0,0.00151 0,0.00223c0,0.0008 0,0.00151 0,0.00223c0,0.0008 0,0.00151 0,0.00223c0,0.0008 0,0.00151 0,0.00223c0,0.0008 0,0.00151 0,0.00231c0,0.00072 0,0.00143 0,0.00223c0,0.00072 0,0.00143 0,0.00223c0,0.00072 0,0.00151 0,0.00223c0,0.00072 0,0.00151 0,0.00223c0,0.0008 0,0.00151 0,0.00223c0,0.0008 0,0.00151 0,0.00223c0,0.0008 0,0.00151 0,0.00231c0,0.00072 0,0.00143 0,0.00223c0,0.00072 0,0.00151 0,0.00223c0,0.00072 0,0.00151 0,0.00223c0,0.0008 0,0.00151 0,0.00223c0,0.0008 0,0.00151 0,0.00231c0,0.00072 0,0.00143 0,0.00223c0,0.00072 0,0.00151 0,0.00223c0,0.0008 0,0.00151 0,0.00223c0,0.0008 0,0.00151 0,0.00231c0,0.00072 0,0.00143 0,0.00223c0,0.00072 0,0.00151 0,0.00223c0,0.0008 0,0.00151 0,0.00223c0,0.0008 0,0.00151 0,0.00231c0,0.00072 0,0.00151 0,0.00223c0,0.00072 0,0.00151 0,0.00223c0,0.0008 0,0.00151 0,0.00231c0,0.00072 0,0.00151 0,0.00223c0,0.00072 0,0.00151 0,0.00223c0,0.0008 0,0.00151 0,0.00231c0,0.00072 0,0.00151 0,0.00223c0,0.00072 0,0.00151 0,0.00223c0,0.0008 0,0.00151 0,0.00231c0,0.00072 0,0.00151 0,0.00223c0,0.0008 0,0.00151 0,0.00223c0,0.0008 0,0.00151 0,0.00231c0,0.00072 0,0.00151 0,0.00223c0,0.0008 0,0.00151 0,0.00231c0,0.00072 0,0.00151 0,0.00223c0,0.0008 0,0.00151 0,0.00231c0,0.00072 0,0.00151 0,0.00223c0,0.00072 0,0.00151 0,0.00223c0,0.0008 0,0.00151 0,0.00231c0,0.00072 0,0.00151 0,0.00223c0,0.0008 0,0.00151 0,0.00231c0,0.00072 0,0.00151 0,0.00223c0,0.0008 0,0.00151 0,0.00231c0,0.00072 0,0.00151 0,0.00223c0,0.0008 0,0.00151 0,0.00231c0,0.00072 0,0.00151 0,0.00223c0,0.0008 0,0.00151 0,0.00231c0,0.00072 0,0.00151 0,0.00223c0,0.0008 0,0.00151 0,0.00231c0,0.00072 0,0.00151 0,0.00223c0,0.0008 0,0.00151 0,0.00231c0,0.0008 0,0.00151 0,0.00231c0,0.00072 0,0.00151 0,0.00223c0,0.0008 0,0.00151 0,0.00231c0,0.00072 0,0.00151 0,0.00223c0,0.0008 0,0.00151 0,0.00231c0,0.00072 0,0.00151 0,0.00231c0,0.00072 0,0.00151 0,0.00223c0,0.0008 0,0.00151 0,0.00231c0,0.00072 0,0.00151 0,0.00223c0,0.0008 0,0.00151 0,0.00231c0,0.0008 0,0.00151 0,0.00231c0,0.00072 0,0.00151 0,0.00223c0,0.0008 0,0.00151 0,0.00231c0,0.0008 0,0.00151 0,0.00231c0,0.00072 0,0.00151 0,0.00223c0,0.0008 0,0.00159 0,0.00231c0,0.0008 0,0.00151 0,0.00231c0,0.00072 0,0.00151 0,0.00223c0,0.0008 0,0.00159 0,0.00231c0,0.0008 0,0.00151 0,0.00231c0,0.00072 0,0.00151 0,0.00231c0,0.00072 0,0.00151 0,0.00223c0,0.0008 0,0.00159 0,0.00231c0,0.0008 0,0.00151 0,0.00231c0,0.00072 0,0.00151 0,0.00231c0,0.00072 0,0.00151 0,0.00223c0,0.0008 0,0.00159 0,0.00231c0,0.0008 0,0.00151 0,0.00231c0,0.0008 0,0.00151 0,0.00231c0,0.00072 0,0.00151 0,0.00231c0,0.00072 0,0.00151 0,0.00223c0,0.0008 0,0.00159 0,0.00231c0,0.0008 0,0.00151 0,0.00231c0,0.0008 0,0.00151 0,0.00231c0,0.0008 0,0.00151 0,0.00231c0,0.00072 0,0.00151 0,0.00231c0,0.00072 0,0.00151 0,0.00223c0,0.0008 0,0.00159 0,0.00231c0,0.0008 0,0.00159 0,0.00231c0,0.0008 0,0.00151 0,0.00231c0,0.0008 0,0.00151 0,0.00231c0,0.0008 0,0.00151 0,0.00231c0,0.0008 0,0.00151 0,0.00231c0,0.00072 0,0.00151 0,0.00231c0,0.00072 0,0.00151 0,0.00231c0,0.00072 0,0.00151 0,0.00231c0,0.00072 0,0.00151 0,0.00231c0,0.00072 0,0.00151 0,0.00223c0,0.0008 0,0.00159 0,0.00231c0,0.0008 0,0.00159 0,0.00231c0,0.0008 0,0.00159 0,0.00231c0,0.0008 0,0.00159 0,0.00231c0,0.0008 0,0.00159 0,0.00231c0,0.0008 0,0.00159 0,0.00231c0,0.0008 0,0.00159 0,0.00231c0,0.0008 0,0.00159 0,0.00231c0,0.0008 0,0.00159 0,0.00231c0,0.0008 0,0.00159 0,0.00231c0,0.0008 0,0.00159 0,0.00231c0,0.0008 0,0.00159 0,0.00239c0,0.00072 0,0.00151 0,0.00231c0,0.00072 0,0.00151 0,0.00231c0,0.00072 0,0.00151 0,0.00231c0,0.00072 0,0.00151 0,0.00231c0,0.00072 0,0.00151 0,0.00231c0,0.0008 0,0.00151 0,0.00231c0,0.0008 0,0.00151 0,0.00231c0,0.0008 0,0.00151 0,0.00231c0,0.0008 0,0.00159 0,0.00231c0,0.0008 0,0.00159 0,0.00231c0,0.0008 0,0.00159 0,0.00239c0,0.00072 0,0.00151 0,0.00231c0,0.00072 0,0.00151 0,0.00231c0,0.0008 0,0.00151 0,0.00231c0,0.0008 0,0.00151 0,0.00231c0,0.0008 0,0.00159 0,0.00231c0,0.0008 0,0.00159 0,0.00231c0,0.0008 0,0.00159 0,0.00239c0,0.00072 0,0.00151 0,0.00231c0,0.0008 0,0.00151 0,0.00231c0,0.0008 0,0.00159 0,0.00231c0,0.0008 0,0.00159 0,0.00231c0,0.0008 0,0.00159 0,0.00239c0,0.00072 0,0.00151 0,0.00231c0,0.0008 0,0.00151 0,0.00231c0,0.0008 0,0.00159 0,0.00231c0,0.0008 0,0.00159 0,0.00239c0,0.00072 0,0.00151 0,0.00231c0,0.0008 0,0.00151 0,0.00231c0,0.0008 0,0.00159 0,0.00231c0,0.0008 0,0.00159 0,0.00239c0,0.0008 0,0.00151 0,0.00231c0,0.0008 0,0.00159 0,0.00231c0,0.0008 0,0.00159 0,0.00239c0,0.00072 0,0.00151 0,0.00231c0,0.0008 0,0.00159 0,0.00231c0,0.0008 0,0.00159 0,0.00239c0,0.00072 0,0.00151 0,0.00231c0,0.0008 0,0.00159 0,0.00231c0,0.0008 0,0.00159 0,0.00239c0,0.00072 0,0.00151 0,0.00231c0,0.0008 0,0.00159 0,0.00231c0,0.0008 0,0.00159 0,0.00239c0,0.0008 0,0.00151 0,0.00231c0,0.0008 0,0.00159 0,0.00239c0,0.00072 0,0.00151 0,0.00231c0,0.0008 0,0.00159 0,0.00231c0,0.0008 0,0.00159 0,0.00239c0,0.0008 0,0.00151 0,0.00231c0,0.0008 0,0.00159 0,0.00239c0,0.00072 0,0.00151 0,0.00231c0,0.0008 0,0.00159 0,0.00231c0,0.0008 0,0.00159 0,0.00239c0,0.0008 0,0.00159 0,0.00231c0,0.0008 0,0.00159 0,0.00239c0,0.0008 0,0.00151 0,0.00231c0,0.0008 0,0.00159 0,0.00239c0,0.0008 0,0.00151 0,0.00231c0,0.0008 0,0.00159 0,0.00239c0,0.0008 0,0.00151 0,0.00231c0,0.0008 0,0.00159 0,0.00239c0,0.0008 0,0.00151 0,0.00231c0,0.0008 0,0.00159 0,0.00239c0,0.0008 0,0.00151 0,0.00231c0,0.0008 0,0.00159 0,0.00239c0,0.0008 0,0.00159 0,0.00231c0,0.0008 0,0.00159 0,0.00239c0,0.0008 0,0.00159 0,0.00231c0,0.0008 0,0.00159 0,0.00239c0,0.0008 0,0.00159 0,0.00239c0,0.00072 0,0.00151 0,0.00231c0,0.0008 0,0.00159 0,0.00239c0,0.0008 0,0.00159 0,0.00231c0,0.0008 0,0.00159 0,0.00239c0,0.0008 0,0.00159 0,0.00239c0,0.00072 0,0.00151 0,0.00231c0,0.0008 0,0.00159 0,0.00239c0,0.0008 0,0.00159 0,0.00231c0,0.0008 0,0.00159 0,0.00239c0,0.0008 0,0.00159 0,0.00239c0,0.0008 0,0.00159 0,0.00231c0,0.0008 0,0.00159 0,0.00239c0,0.0008 0,0.00159 0,0.00239c0,0.0008 0,0.00151 0,0.00231c0,0.0008 0,0.00159 0,0.00239c0,0.0008 0,0.00159 0,0.00239c0,0.0008 0,0.00159 0,0.00231c0,0.0008 0,0.00159 0,0.00239c0,0.0008 0,0.00159 0,0.00239c0,0.0008 0,0.00159 0,0.00239c0,0.00072 0,0.00151 0,0.00231c0,0.0008 0,0.00159 0,0.00239c0,0.0008 0,0.00159 0,0.00239c0,0.0008 0,0.00159 0,0.00231c0,0.0008 0,0.00159 0,0.00239c0,0.0008 0,0.00159 0,0.00239c0,0.0008 0,0.00159 0,0.00239c0,0.0008 0,0.00159 0,0.00239c0,0.00072 0,0.00151 0,0.00231c0,0.0008 0,0.00159 0,0.00239c0,0.0008 0,0.00159 0,0.00239c0,0.0008 0,0.00159 0,0.00239c0,0.0008 0,0.00159 0,0.00231c0,0.0008 0,0.00159 0,0.00239c0,0.0008 0,0.00159 0,0.00239c0,0.0008 0,0.00159 0,0.00239c0,0.0008 0,0.00159 0,0.00239c0,0.0008 0,0.00159 0,0.00239c0,0.0008 0,0.00151 0,0.00231c0,0.0008 0,0.00159 0,0.00239c0,0.0008 0,0.00159 0,0.00239c0,0.0008 0,0.00159 0,0.00239c0,0.0008 0,0.00159 0,0.00239c0,0.0008 0,0.00159 0,0.00239c0,0.0008 0,0.00159 0,0.00239c0,0.0008 0,0.00159 0,0.00239c0,0.0008 0,0.00151 0,0.00231c0,0.0008 0,0.00159 0,0.00239c0,0.0008 0,0.00159 0,0.00239c0,0.0008 0,0.00159 0,0.00239c0,0.0008 0,0.00159 0,0.00239c0,0.0008 0,0.00159 0,0.00239c0,0.0008 0,0.00159 0,0.00239c0,0.0008 0,0.00159 0,0.00239c0,0.0008 0,0.00159 0,0.00239c0,0.0008 0,0.00159 0,0.00239c0,0.0008 0,0.00159 0,0.00239c0,0.0008 0,0.00159 0,0.00239c0,0.0008 0,0.00159 0,0.00239c0,0.0008 0,0.00159 0,0.00239c0,0.0008 0,0.00159 0,0.00239c0,0.0008 0,0.00159 0,0.00239c0,0.0008 0,0.00159 0,0.00239c0,0.0008 0,0.00159 0,0.00239c0,0.0008 0,0.00159 0,0.00239c0,0.0008 0,0.00159 0,0.00239c0,0.0008 0,0.00159 0,0.00239c0,0.0008 0,0.00159 0,0.00239c0,0.0008 0,0.00159 0,0.00239c0,0.0008 0,0.00159 0,0.00239c0,0.0008 0,0.00159 0,0.00239c0,0.0008 0,0.00159 0,0.00239c0,0.0008 0,0.00159 0,0.00239c0,0.0008 0,0.00159 0,0.00239c0,0.0008 0,0.00159 0,0.00239c0,0.0008 0,0.00159 0,0.00239c0,0.0008 0,0.00159 0,0.00239c0,0.00087 0,0.00167 0,0.00247c0,0.0008 0,0.00159 0,0.00239c0,0.0008 0,0.00159 0,0.00239c0,0.0008 0,0.00159 0,0.00239c0,0.0008 0,0.00159 0,0.00239c0,0.0008 0,0.00159 0,0.00239c0,0.0008 0,0.00159 0,0.00239c0,0.0008 0,0.00159 0,0.00239c0,0.00087 0,0.00167 0,0.00247c0,0.0008 0,0.00159 0,0.00239c0,0.0008 0,0.00159 0,0.00239c0,0.0008 0,0.00159 0,0.00239c0,0.0008 0,0.00159 0,0.00239c0,0.0008 0,0.00159 0,0.00247c0,0.0008 0,0.00159 0,0.00239c0,0.0008 0,0.00159 0,0.00239c0,0.0008 0,0.00159 0,0.00239c0,0.0008 0,0.00159 0,0.00239c0,0.0008 0,0.00159 0,0.00247c0,0.0008 0,0.00159 0,0.00239c0,0.0008 0,0.00159 0,0.00239c0,0.0008 0,0.00159 0,0.00239c0,0.0008 0,0.00159 0,0.00239c0,0.00087 0,0.00167 0,0.00247c0,0.0008 0,0.00159 0,0.00239c0,0.0008 0,0.00159 0,0.00239c0,0.0008 0,0.00159 0,0.00239c0,0.00087 0,0.00167 0,0.00247c0,0.0008 0,0.00159 0,0.00239c0,0.0008 0,0.00159 0,0.00239c0,0.0008 0,0.00167 0,0.00247c0,0.0008 0,0.00159 0,0.00239c0,0.0008 0,0.00159 0,0.00239c0,0.0008 0,0.00159 0,0.00247c0,0.0008 0,0.00159 0,0.00239c0,0.0008 0,0.00159 0,0.00239c0,0.0008 0,0.00159 0,0.00239c0,0.00087 0,0.00167 0,0.00247c0,0.0008 0,0.00159 0,0.00239c0,0.0008 0,0.00159 0,0.00247c0,0.0008 0,0.00159 0,0.00239c0,0.0008 0,0.00159 0,0.00239c0,0.0008 0,0.00159 0,0.00247c0,0.0008 0,0.00159 0,0.00239c0,0.0008 0,0.00159 0,0.00239c0,0.0008 0,0.00167 0,0.00247c0,0.0008 0,0.00159 0,0.00239c0,0.0008 0,0.00159 0,0.00247c0,0.0008 0,0.00159 0,0.00239c0,0.0008 0,0.00159 0,0.00239c0,0.0008 0,0.00167 0,0.00247c0,0.0008 0,0.00159 0,0.00239c0,0.0008 0,0.00159 0,0.00247c0,0.0008 0,0.00159 0,0.00239c0,0.0008 0,0.00159 0,0.00239c0,0.00087 0,0.00167 0,0.00247c0,0.0008 0,0.00159 0,0.00239c0,0.0008 0,0.00167 0,0.00247c0,0.0008 0,0.00159 0,0.00239c0,0.0008 0,0.00167 0,0.00247c0,0.0008 0,0.00159 0,0.00239c0,0.0008 0,0.00167 0,0.00247c0,0.0008 0,0.00159 0,0.00239c0,0.0008 0,0.00159 0,0.00247c0,0.0008 0,0.00159 0,0.00239c0,0.0008 0,0.00159 0,0.00247c0,0.0008 0,0.00159 0,0.00239l0.79529,0c0,-0.0008 0,-0.00159 0,-0.00239c0,-0.00087 0,-0.00167 0,-0.00247c0,-0.0008 0,-0.00159 0,-0.00239c0,-0.00087 0,-0.00167 0,-0.00247c0,-0.0008 0,-0.00159 0,-0.00239c0,-0.0008 0,-0.00167 0,-0.00247c0,-0.0008 0,-0.00159 0,-0.00239c0,-0.0008 0,-0.00167 0,-0.00247c0,-0.0008 0,-0.00159 0,-0.00239c0,-0.0008 0,-0.00167 0,-0.00247c0,-0.0008 0,-0.00159 0,-0.00239c0,-0.0008 0,-0.00159 0,-0.00247c0,-0.0008 0,-0.00159 0,-0.00239c0,-0.0008 0,-0.00159 0,-0.00239c0,-0.00087 0,-0.00167 0,-0.00247c0,-0.0008 0,-0.00159 0,-0.00239c0,-0.0008 0,-0.00167 0,-0.00247c0,-0.0008 0,-0.00159 0,-0.00239c0,-0.0008 0,-0.00159 0,-0.00239c0,-0.00087 0,-0.00167 0,-0.00247c0,-0.0008 0,-0.00159 0,-0.00239c0,-0.0008 0,-0.00167 0,-0.00247c0,-0.0008 0,-0.00159 0,-0.00239c0,-0.0008 0,-0.00159 0,-0.00239c0,-0.00087 0,-0.00167 0,-0.00247c0,-0.0008 0,-0.00159 0,-0.00239c0,-0.0008 0,-0.00159 0,-0.00239c0,-0.00087 0,-0.00167 0,-0.00247c0,-0.0008 0,-0.00159 0,-0.00239c0,-0.0008 0,-0.00159 0,-0.00247c0,-0.0008 0,-0.00159 0,-0.00239c0,-0.0008 0,-0.00159 0,-0.00239c0,-0.0008 0,-0.00159 0,-0.00239c0,-0.00087 0,-0.00167 0,-0.00247c0,-0.0008 0,-0.00159 0,-0.00239c0,-0.0008 0,-0.00159 0,-0.00239c0,-0.0008 0,-0.00167 0,-0.00247c0,-0.0008 0,-0.00159 0,-0.00239c0,-0.0008 0,-0.00159 0,-0.00239c0,-0.0008 0,-0.00159 0,-0.00247c0,-0.0008 0,-0.00159 0,-0.00239c0,-0.0008 0,-0.00159 0,-0.00239c0,-0.0008 0,-0.00159 0,-0.00239c0,-0.0008 0,-0.00159 0,-0.00247c0,-0.0008 0,-0.00159 0,-0.00239c0,-0.0008 0,-0.00159 0,-0.00239c0,-0.0008 0,-0.00159 0,-0.00239c0,-0.0008 0,-0.00159 0,-0.00239c0,-0.00087 0,-0.00167 0,-0.00247c0,-0.0008 0,-0.00159 0,-0.00239c0,-0.0008 0,-0.00159 0,-0.00239c0,-0.0008 0,-0.00159 0,-0.00239c0,-0.0008 0,-0.00159 0,-0.00239c0,-0.00087 0,-0.00167 0,-0.00247c0,-0.0008 0,-0.00159 0,-0.00239c0,-0.0008 0,-0.00159 0,-0.00239c0,-0.0008 0,-0.00159 0,-0.00239c0,-0.0008 0,-0.00159 0,-0.00239c0,-0.0008 0,-0.00159 0,-0.00247c0,-0.0008 0,-0.00159 0,-0.00239c0,-0.0008 0,-0.00159 0,-0.00239c0,-0.0008 0,-0.00159 0,-0.00239c0,-0.0008 0,-0.00159 0,-0.00239c0,-0.0008 0,-0.00159 0,-0.00239c0,-0.0008 0,-0.00159 0,-0.00239c0,-0.0008 0,-0.00159 0,-0.00239c0,-0.0008 0,-0.00159 0,-0.00247c0,-0.0008 0,-0.00159 0,-0.00239c0,-0.0008 0,-0.00159 0,-0.00239c0,-0.0008 0,-0.00159 0,-0.00239c0,-0.0008 0,-0.00159 0,-0.00239c0,-0.0008 0,-0.00159 0,-0.00239c0,-0.0008 0,-0.00159 0,-0.00239c0,-0.0008 0,-0.00159 0,-0.00239c0,-0.0008 0,-0.00159 0,-0.00239c0,-0.0008 0,-0.00159 0,-0.00239c0,-0.0008 0,-0.00159 0,-0.00239c0,-0.0008 0,-0.00159 0,-0.00239c0,-0.0008 0,-0.00159 0,-0.00239c0,-0.0008 0,-0.00159 0,-0.00239c0,-0.0008 0,-0.00159 0,-0.00239c0,-0.0008 0,-0.00159 0,-0.00239c0,-0.0008 0,-0.00159 0,-0.00239c0,-0.0008 0,-0.00159 0,-0.00239c0,-0.0008 0,-0.00159 0,-0.00239c0,-0.0008 0,-0.00159 0,-0.00239c0,-0.0008 0,-0.00159 0,-0.00239c0,-0.0008 0,-0.00159 0,-0.00239c0,-0.0008 0,-0.00159 0,-0.00239c0,-0.0008 0,-0.00159 0,-0.00239c0,-0.0008 0,-0.00159 0,-0.00239c0,-0.0008 0,-0.00159 0,-0.00239c0,-0.0008 0,-0.00159 0,-0.00239c0,-0.0008 0,-0.00159 0,-0.00239c0,-0.0008 0,-0.00159 0,-0.00239c0,-0.0008 0,-0.00159 0,-0.00239c0,-0.0008 0,-0.00159 0,-0.00239c0,-0.0008 0,-0.00151 0,-0.00231c0,-0.0008 0,-0.00159 0,-0.00239c0,-0.0008 0,-0.00159 0,-0.00239c0,-0.0008 0,-0.00159 0,-0.00239c0,-0.0008 0,-0.00159 0,-0.00239c0,-0.0008 0,-0.00159 0,-0.00239c0,-0.0008 0,-0.00159 0,-0.00239c0,-0.0008 0,-0.00159 0,-0.00239c0,-0.0008 0,-0.00151 0,-0.00231c0,-0.0008 0,-0.00159 0,-0.00239c0,-0.0008 0,-0.00159 0,-0.00239c0,-0.0008 0,-0.00159 0,-0.00239c0,-0.0008 0,-0.00159 0,-0.00239c0,-0.0008 0,-0.00159 0,-0.00239c0,-0.00072 0,-0.00151 0,-0.00231c0,-0.0008 0,-0.00159 0,-0.00239c0,-0.0008 0,-0.00159 0,-0.00239c0,-0.0008 0,-0.00159 0,-0.00239c0,-0.0008 0,-0.00159 0,-0.00231c0,-0.0008 0,-0.00159 0,-0.00239c0,-0.0008 0,-0.00159 0,-0.00239c0,-0.0008 0,-0.00159 0,-0.00239c0,-0.0008 0,-0.00159 0,-0.00239c0,-0.00072 0,-0.00151 0,-0.00231c0,-0.0008 0,-0.00159 0,-0.00239c0,-0.0008 0,-0.00159 0,-0.00239c0,-0.0008 0,-0.00159 0,-0.00231c0,-0.0008 0,-0.00159 0,-0.00239c0,-0.0008 0,-0.00159 0,-0.00239c0,-0.0008 0,-0.00159 0,-0.00239c0,-0.00072 0,-0.00151 0,-0.00231c0,-0.0008 0,-0.00159 0,-0.00239c0,-0.0008 0,-0.00159 0,-0.00239c0,-0.0008 0,-0.00151 0,-0.00231c0,-0.0008 0,-0.00159 0,-0.00239c0,-0.0008 0,-0.00159 0,-0.00239c0,-0.00072 0,-0.00151 0,-0.00231c0,-0.0008 0,-0.00159 0,-0.00239c0,-0.0008 0,-0.00159 0,-0.00239c0,-0.00072 0,-0.00151 0,-0.00231c0,-0.0008 0,-0.00159 0,-0.00239c0,-0.0008 0,-0.00159 0,-0.00231c0,-0.0008 0,-0.00159 0,-0.00239c0,-0.0008 0,-0.00159 0,-0.00239c0,-0.00072 0,-0.00151 0,-0.00231c0,-0.0008 0,-0.00159 0,-0.00239c0,-0.0008 0,-0.00159 0,-0.00231c0,-0.0008 0,-0.00159 0,-0.00239c0,-0.0008 0,-0.00159 0,-0.00239c0,-0.00072 0,-0.00151 0,-0.00231c0,-0.0008 0,-0.00159 0,-0.00239c0,-0.00072 0,-0.00151 0,-0.00231c0,-0.0008 0,-0.00159 0,-0.00239c0,-0.0008 0,-0.00151 0,-0.00231c0,-0.0008 0,-0.00159 0,-0.00239c0,-0.0008 0,-0.00151 0,-0.00231c0,-0.0008 0,-0.00159 0,-0.00239c0,-0.0008 0,-0.00151 0,-0.00231c0,-0.0008 0,-0.00159 0,-0.00239c0,-0.0008 0,-0.00151 0,-0.00231c0,-0.0008 0,-0.00159 0,-0.00239c0,-0.0008 0,-0.00151 0,-0.00231c0,-0.0008 0,-0.00159 0,-0.00239c0,-0.00072 0,-0.00151 0,-0.00231c0,-0.0008 0,-0.00159 0,-0.00239c0,-0.00072 0,-0.00151 0,-0.00231c0,-0.0008 0,-0.00159 0,-0.00231c0,-0.0008 0,-0.00159 0,-0.00239c0,-0.0008 0,-0.00151 0,-0.00231c0,-0.0008 0,-0.00159 0,-0.00239c0,-0.00072 0,-0.00151 0,-0.00231c0,-0.0008 0,-0.00159 0,-0.00231c0,-0.0008 0,-0.00159 0,-0.00239c0,-0.0008 0,-0.00151 0,-0.00231c0,-0.0008 0,-0.00159 0,-0.00239c0,-0.00072 0,-0.00151 0,-0.00231c0,-0.0008 0,-0.00159 0,-0.00231c0,-0.0008 0,-0.00159 0,-0.00239c0,-0.00072 0,-0.00151 0,-0.00231c0,-0.0008 0,-0.00159 0,-0.00231c0,-0.0008 0,-0.00159 0,-0.00239c0,-0.00072 0,-0.00151 0,-0.00231c0,-0.0008 0,-0.00159 0,-0.00231c0,-0.0008 0,-0.00159 0,-0.00239c0,-0.00072 0,-0.00151 0,-0.00231c0,-0.0008 0,-0.00151 0,-0.00231c0,-0.0008 0,-0.00159 0,-0.00239c0,-0.00072 0,-0.00151 0,-0.00231c0,-0.0008 0,-0.00151 0,-0.00231c0,-0.0008 0,-0.00159 0,-0.00231c0,-0.0008 0,-0.00159 0,-0.00239c0,-0.00072 0,-0.00151 0,-0.00231c0,-0.0008 0,-0.00151 0,-0.00231c0,-0.0008 0,-0.00159 0,-0.00231c0,-0.0008 0,-0.00159 0,-0.00239c0,-0.00072 0,-0.00151 0,-0.00231c0,-0.00072 0,-0.00151 0,-0.00231c0,-0.0008 0,-0.00151 0,-0.00231c0,-0.0008 0,-0.00159 0,-0.00231c0,-0.0008 0,-0.00159 0,-0.00239c0,-0.00072 0,-0.00151 0,-0.00231c0,-0.00072 0,-0.00151 0,-0.00231c0,-0.0008 0,-0.00151 0,-0.00231c0,-0.0008 0,-0.00151 0,-0.00231c0,-0.0008 0,-0.00159 0,-0.00231c0,-0.0008 0,-0.00159 0,-0.00231c0,-0.0008 0,-0.00159 0,-0.00239c0,-0.00072 0,-0.00151 0,-0.00231c0,-0.00072 0,-0.00151 0,-0.00231c0,-0.0008 0,-0.00151 0,-0.00231c0,-0.0008 0,-0.00151 0,-0.00231c0,-0.0008 0,-0.00151 0,-0.00231c0,-0.0008 0,-0.00159 0,-0.00231c0,-0.0008 0,-0.00159 0,-0.00231c0,-0.0008 0,-0.00159 0,-0.00231c0,-0.0008 0,-0.00159 0,-0.00231c0,-0.0008 0,-0.00159 0,-0.00231c0,-0.0008 0,-0.00159 0,-0.00239c0,-0.00072 0,-0.00151 0,-0.00231c0,-0.00072 0,-0.00151 0,-0.00231c0,-0.00072 0,-0.00151 0,-0.00231c0,-0.00072 0,-0.00151 0,-0.00231c0,-0.00072 0,-0.00151 0,-0.00231c0,-0.00072 0,-0.00151 0,-0.00231c0,-0.00072 0,-0.00151 0,-0.00231c0,-0.00072 0,-0.00151 0,-0.00231c0,-0.00072 0,-0.00151 0,-0.00231c0,-0.00072 0,-0.00151 0,-0.00231c0,-0.00072 0,-0.00151 0,-0.00231c0,-0.00072 0,-0.00151 0,-0.00223c0,-0.0008 0,-0.00159 0,-0.00231c0,-0.0008 0,-0.00159 0,-0.00231c0,-0.0008 0,-0.00159 0,-0.00231c0,-0.0008 0,-0.00159 0,-0.00231c0,-0.0008 0,-0.00151 0,-0.00231c0,-0.0008 0,-0.00151 0,-0.00231c0,-0.0008 0,-0.00151 0,-0.00231c0,-0.0008 0,-0.00151 0,-0.00231c0,-0.00072 0,-0.00151 0,-0.00231c0,-0.00072 0,-0.00151 0,-0.00231c0,-0.00072 0,-0.00151 0,-0.00223c0,-0.0008 0,-0.00159 0,-0.00231c0,-0.0008 0,-0.00151 0,-0.00231c0,-0.0008 0,-0.00151 0,-0.00231c0,-0.0008 0,-0.00151 0,-0.00231c0,-0.00072 0,-0.00151 0,-0.00231c0,-0.00072 0,-0.00151 0,-0.00223c0,-0.0008 0,-0.00159 0,-0.00231c0,-0.0008 0,-0.00151 0,-0.00231c0,-0.0008 0,-0.00151 0,-0.00231c0,-0.00072 0,-0.00151 0,-0.00231c0,-0.00072 0,-0.00151 0,-0.00223c0,-0.0008 0,-0.00159 0,-0.00231c0,-0.0008 0,-0.00151 0,-0.00231c0,-0.00072 0,-0.00151 0,-0.00231c0,-0.00072 0,-0.00151 0,-0.00223c0,-0.0008 0,-0.00159 0,-0.00231c0,-0.0008 0,-0.00151 0,-0.00231c0,-0.00072 0,-0.00151 0,-0.00231c0,-0.00072 0,-0.00151 0,-0.00223c0,-0.0008 0,-0.00151 0,-0.00231c0,-0.00072 0,-0.00151 0,-0.00231c0,-0.00072 0,-0.00151 0,-0.00223c0,-0.0008 0,-0.00151 0,-0.00231c0,-0.0008 0,-0.00151 0,-0.00231c0,-0.00072 0,-0.00151 0,-0.00223c0,-0.0008 0,-0.00151 0,-0.00231c0,-0.0008 0,-0.00151 0,-0.00231c0,-0.00072 0,-0.00151 0,-0.00223c0,-0.0008 0,-0.00151 0,-0.00231c0,-0.00072 0,-0.00151 0,-0.00223c0,-0.0008 0,-0.00159 0,-0.00231c0,-0.0008 0,-0.00151 0,-0.00231c0,-0.00072 0,-0.00151 0,-0.00223c0,-0.0008 0,-0.00151 0,-0.00231c0,-0.00072 0,-0.00151 0,-0.00223c0,-0.0008 0,-0.00151 0,-0.00231c0,-0.0008 0,-0.00151 0,-0.00231c0,-0.00072 0,-0.00151 0,-0.00223c0,-0.0008 0,-0.00151 0,-0.00231c0,-0.00072 0,-0.00151 0,-0.00223c0,-0.0008 0,-0.00151 0,-0.00231c0,-0.00072 0,-0.00151 0,-0.00223c0,-0.0008 0,-0.00151 0,-0.00231c0,-0.00072 0,-0.00151 0,-0.00223c0,-0.0008 0,-0.00151 0,-0.00231c0,-0.00072 0,-0.00151 0,-0.00223c0,-0.0008 0,-0.00151 0,-0.00231c0,-0.00072 0,-0.00151 0,-0.00223c0,-0.0008 0,-0.00151 0,-0.00231c0,-0.00072 0,-0.00151 0,-0.00223c0,-0.00072 0,-0.00151 0,-0.00223c0,-0.0008 0,-0.00151 0,-0.00231c0,-0.00072 0,-0.00151 0,-0.00223c0,-0.0008 0,-0.00151 0,-0.00231c0,-0.00072 0,-0.00151 0,-0.00223c0,-0.0008 0,-0.00151 0,-0.00231c0,-0.00072 0,-0.00143 0,-0.00223c0,-0.00072 0,-0.00151 0,-0.00223c0,-0.0008 0,-0.00151 0,-0.00231c0,-0.00072 0,-0.00151 0,-0.00223c0,-0.00072 0,-0.00151 0,-0.00223c0,-0.0008 0,-0.00151 0,-0.00231c0,-0.00072 0,-0.00151 0,-0.00223c0,-0.00072 0,-0.00151 0,-0.00223c0,-0.0008 0,-0.00151 0,-0.00231c0,-0.00072 0,-0.00151 0,-0.00223c0,-0.00072 0,-0.00151 0,-0.00223c0,-0.0008 0,-0.00151 0,-0.00231c0,-0.00072 0,-0.00143 0,-0.00223c0,-0.00072 0,-0.00151 0,-0.00223c0,-0.0008 0,-0.00151 0,-0.00223c0,-0.0008 0,-0.00151 0,-0.00231c0,-0.00072 0,-0.00143 0,-0.00223c0,-0.00072 0,-0.00151 0,-0.00223c0,-0.0008 0,-0.00151 0,-0.00223c0,-0.0008 0,-0.00151 0,-0.00231c0,-0.00072 0,-0.00143 0,-0.00223c0,-0.00072 0,-0.00151 0,-0.00223c0,-0.00072 0,-0.00151 0,-0.00223c0,-0.0008 0,-0.00151 0,-0.00223c0,-0.0008 0,-0.00151 0,-0.00231c0,-0.00072 0,-0.00143 0,-0.00223c0,-0.00072 0,-0.00143 0,-0.00223c0,-0.00072 0,-0.00151 0,-0.00223c0,-0.00072 0,-0.00151 0,-0.00223c0,-0.0008 0,-0.00151 0,-0.00223c0,-0.0008 0,-0.00151 0,-0.00223c0,-0.0008 0,-0.00151 0,-0.00231c0,-0.00072 0,-0.00143 0,-0.00223c0,-0.00072 0,-0.00143 0,-0.00223c0,-0.00072 0,-0.00143 0,-0.00223c0,-0.00072 0,-0.00151 0,-0.00223c0,-0.00072 0,-0.00151 0,-0.00223c0,-0.00072 0,-0.00151 0,-0.00223c0,-0.00072 0,-0.00151 0,-0.00223c0,-0.00072 0,-0.00151 0,-0.00223c0,-0.00072 0,-0.00151 0,-0.00223c0,-0.0008 0,-0.00151 0,-0.00223c0,-0.0008 0,-0.00151 0,-0.00223c0,-0.0008 0,-0.00151 0,-0.00223c0,-0.0008 0,-0.00151 0,-0.00223c0,-0.0008 0,-0.00151 0,-0.00223c0,-0.0008 0,-0.00151 0,-0.00223c0,-0.0008 0,-0.00151 0,-0.00223c0,-0.00072 0,-0.00151 0,-0.00223c0,-0.00072 0,-0.00151 0,-0.00223c0,-0.00072 0,-0.00151 0,-0.00223c0,-0.00072 0,-0.00151 0,-0.00223c0,-0.00072 0,-0.00151 0,-0.00223c0,-0.00072 0,-0.00143 0,-0.00223c0,-0.00072 0,-0.00143 0,-0.00223c0,-0.00072 0,-0.00143 0,-0.00223c0,-0.00072 0,-0.00143 0,-0.00215c0,-0.0008 0,-0.00151 0,-0.00223c0,-0.0008 0,-0.00151 0,-0.00223c0,-0.0008 0,-0.00151 0,-0.00223c0,-0.00072 0,-0.00151 0,-0.00223c0,-0.00072 0,-0.00151 0,-0.00223c0,-0.00072 0,-0.00143 0,-0.00223c0,-0.00072 0,-0.00143 0,-0.00215c0,-0.0008 0,-0.00151 0,-0.00223c0,-0.0008 0,-0.00151 0,-0.00223c0,-0.00072 0,-0.00151 0,-0.00223c0,-0.00072 0,-0.00143 0,-0.00223c0,-0.00072 0,-0.00143 0,-0.00215c0,-0.0008 0,-0.00151 0,-0.00223c0,-0.00072 0,-0.00151 0,-0.00223c0,-0.00072 0,-0.00143 0,-0.00223c0,-0.00072 0,-0.00143 0,-0.00215c0,-0.0008 0,-0.00151 0,-0.00223c0,-0.00072 0,-0.00151 0,-0.00223c0,-0.00072 0,-0.00143 0,-0.00223c0,-0.00072 0,-0.00143 0,-0.00215c0,-0.0008 0,-0.00151 0,-0.00223c0,-0.00072 0,-0.00143 0,-0.00223c0,-0.00072 0,-0.00143 0,-0.00215c0,-0.0008 0,-0.00151 0,-0.00223c0,-0.00072 0,-0.00143 0,-0.00223c0,-0.00072 0,-0.00143 0,-0.00215c0,-0.0008 0,-0.00151 0,-0.00223c0,-0.00072 0,-0.00143 0,-0.00223c0,-0.00072 0,-0.00143 0,-0.00215c0,-0.00072 0,-0.00151 0,-0.00223c0,-0.00072 0,-0.00143 0,-0.00215c0,-0.0008 0,-0.00151 0,-0.00223c0,-0.00072 0,-0.00143 0,-0.00223c0,-0.00072 0,-0.00143 0,-0.00215c0,-0.00072 0,-0.00151 0,-0.00223c0,-0.00072 0,-0.00143 0,-0.00215c0,-0.00072 0,-0.00151 0,-0.00223c0,-0.00072 0,-0.00143 0,-0.00215c0,-0.0008 0,-0.00151 0,-0.00223c0,-0.00072 0,-0.00143 0,-0.00215c0,-0.0008 0,-0.00151 0,-0.00223c0,-0.00072 0,-0.00143 0,-0.00215c0,-0.0008 0,-0.00151 0,-0.00223c0,-0.00072 0,-0.00143 0,-0.00215c0,-0.0008 0,-0.00151 0,-0.00223c0,-0.00072 0,-0.00143 0,-0.00215c0,-0.00072 0,-0.00151 0,-0.00223c0,-0.00072 0,-0.00143 0,-0.00215c0,-0.00072 0,-0.00143 0,-0.00223c0,-0.00072 0,-0.00143 0,-0.00215c0,-0.00072 0,-0.00143 0,-0.00215c0,-0.0008 0,-0.00151 0,-0.00223c0,-0.00072 0,-0.00143 0,-0.00215c0,-0.00072 0,-0.00143 0,-0.00223c0,-0.00072 0,-0.00143 0,-0.00215c0,-0.00072 0,-0.00143 0,-0.00215c0,-0.00072 0,-0.00151 0,-0.00223c0,-0.00072 0,-0.00143 0,-0.00215c0,-0.00072 0,-0.00143 0,-0.00215c0,-0.00072 0,-0.00151 0,-0.00223c0,-0.00072 0,-0.00143 0,-0.00215c0,-0.00072 0,-0.00143 0,-0.00215c0,-0.00072 0,-0.00143 0,-0.00223c0,-0.00072 0,-0.00143 0,-0.00215c0,-0.00072 0,-0.00143 0,-0.00215c0,-0.00072 0,-0.00143 0,-0.00215c0,-0.00072 0,-0.00151 0,-0.00223c0,-0.00072 0,-0.00143 0,-0.00215c0,-0.00072 0,-0.00143 0,-0.00215c0,-0.00072 0,-0.00143 0,-0.00215c0,-0.00072 0,-0.00151 0,-0.00223c0,-0.00072 0,-0.00143 0,-0.00215c0,-0.00072 0,-0.00143 0,-0.00215c0,-0.00072 0,-0.00143 0,-0.00215c0,-0.00072 0,-0.00143 0,-0.00215c0,-0.00072 0,-0.00143 0,-0.00215c0,-0.0008 0,-0.00151 0,-0.00223c0,-0.00072 0,-0.00143 0,-0.00215c0,-0.00072 0,-0.00143 0,-0.00215c0,-0.00072 0,-0.00143 0,-0.00215c0,-0.00072 0,-0.00143 0,-0.00215c0,-0.00072 0,-0.00143 0,-0.00215c0,-0.00072 0,-0.00143 0,-0.00215c0,-0.00072 0,-0.00143 0,-0.00215c0,-0.00072 0,-0.00151 0,-0.00223c0,-0.00072 0,-0.00143 0,-0.00215c0,-0.00072 0,-0.00143 0,-0.00215c0,-0.00072 0,-0.00143 0,-0.00215c0,-0.00072 0,-0.00143 0,-0.00215c0,-0.00072 0,-0.00143 0,-0.00215c0,-0.00072 0,-0.00143 0,-0.00215c0,-0.00072 0,-0.00143 0,-0.00215c0,-0.00072 0,-0.00143 0,-0.00215c0,-0.00072 0,-0.00143 0,-0.00215c0,-0.00072 0,-0.00143 0,-0.00215c0,-0.00072 0,-0.00143 0,-0.00215c0,-0.00072 0,-0.00143 0,-0.00215c0,-0.00072 0,-0.00143 0,-0.00215c0,-0.00072 0,-0.00143 0,-0.00215c0,-0.00072 0,-0.00135 0,-0.00207c0,-0.00072 0,-0.00143 0,-0.00215c0,-0.00072 0,-0.00143 0,-0.00215c0,-0.00072 0,-0.00143 0,-0.00215c0,-0.00072 0,-0.00143 0,-0.00215c0,-0.00072 0,-0.00143 0,-0.00215c0,-0.00072 0,-0.00143 0,-0.00215c0,-0.00072 0,-0.00143 0,-0.00215c0,-0.00072 0,-0.00143 0,-0.00207c0,-0.00072 0,-0.00143 0,-0.00215c0,-0.00072 0,-0.00143 0,-0.00215c0,-0.00072 0,-0.00143 0,-0.00215c0,-0.00072 0,-0.00143 0,-0.00215c0,-0.00072 0,-0.00143 0,-0.00215c0,-0.00064 0,-0.00135 0,-0.00207c0,-0.00072 0,-0.00143 0,-0.00215c0,-0.00072 0,-0.00143 0,-0.00215c0,-0.00072 0,-0.00143 0,-0.00215c0,-0.00072 0,-0.00135 0,-0.00207c0,-0.00072 0,-0.00143 0,-0.00215c0,-0.00072 0,-0.00143 0,-0.00215c0,-0.00072 0,-0.00143 0,-0.00215c0,-0.00064 0,-0.00135 0,-0.00207c0,-0.00072 0,-0.00143 0,-0.00215c0,-0.00072 0,-0.00143 0,-0.00215c0,-0.00064 0,-0.00135 0,-0.00207c0,-0.00072 0,-0.00143 0,-0.00215c0,-0.00072 0,-0.00143 0,-0.00215c0,-0.00064 0,-0.00135 0,-0.00207c0,-0.00072 0,-0.00143 0,-0.00215c0,-0.00072 0,-0.00143 0,-0.00207c0,-0.00072 0,-0.00143 0,-0.00215c0,-0.00072 0,-0.00143 0,-0.00215c0,-0.00072 0,-0.00135 0,-0.00207c0,-0.00072 0,-0.00143 0,-0.00215c0,-0.00072 0,-0.00143 0,-0.00207c0,-0.00072 0,-0.00143 0,-0.00215c0,-0.00072 0,-0.00143 0,-0.00207c0,-0.00072 0,-0.00143 0,-0.00215c0,-0.00072 0,-0.00143 0,-0.00215c0,-0.00064 0,-0.00135 0,-0.00207c0,-0.00072 0,-0.00143 0,-0.00215c0,-0.00064 0,-0.00135 0,-0.00207c0,-0.00072 0,-0.00143 0,-0.00215c0,-0.00064 0,-0.00135 0,-0.00207c0,-0.00072 0,-0.00143 0,-0.00207c0,-0.00072 0,-0.00143 0,-0.00215c0,-0.00072 0,-0.00143 0,-0.00207c0,-0.00072 0,-0.00143 0,-0.00215c0,-0.00072 0,-0.00135 0,-0.00207c0,-0.00072 0,-0.00143 0,-0.00215c0,-0.00064 0,-0.00135 0,-0.00207c0,-0.00072 0,-0.00143 0,-0.00207c0,-0.00072 0,-0.00143 0,-0.00215c0,-0.00072 0,-0.00135 0,-0.00207c0,-0.00072 0,-0.00143 0,-0.00207c0,-0.00072 0,-0.00143 0,-0.00215c0,-0.00072 0,-0.00135 0,-0.00207c0,-0.00072 0,-0.00143 0,-0.00207c0,-0.00072 0,-0.00143 0,-0.00215c0,-0.00072 0,-0.00135 0,-0.00207c0,-0.00072 0,-0.00143 0,-0.00207l-0.79529,0zm-1.352,-1.35173c0.74678,0 1.352,0.6051 1.352,1.35173l0.79529,0c0,-1.18603 -0.96146,-2.14702 -2.14729,-2.14702l0,0.79529zm-3.68485,1.35173c0,-0.74663 0.60522,-1.35173 1.352,-1.35173l0,-0.79529c-1.18583,0 -2.14729,0.96099 -2.14729,2.14702l0.79529,0zm5.14289,-2.51474l2.91607,0l0,-0.79529l-2.91607,0l0,0.79529z"/>
</svg>
